<?xml version="1.0" encoding="utf-8"?>
<!-- Generator: Adobe Illustrator 16.0.0, SVG Export Plug-In . SVG Version: 6.00 Build 0)  -->
<!DOCTYPE svg PUBLIC "-//W3C//DTD SVG 1.1//EN" "http://www.w3.org/Graphics/SVG/1.1/DTD/svg11.dtd">
<svg version="1.1" id="Layer_1" xmlns="http://www.w3.org/2000/svg" xmlns:xlink="http://www.w3.org/1999/xlink" x="0px" y="0px"
	 width="1413.283px" height="225px" viewBox="0 0 1413.283 225" enable-background="new 0 0 1413.283 225" xml:space="preserve">
<g>
	<g>
		<g>
			<path opacity="0.8" fill="#333333" d="M21.148,70.554H7.004V2.417h14.145V70.554z"/>
			<path opacity="0.8" fill="#333333" d="M86.422,20.976c2.371,1.341,4.298,3.198,5.777,5.57V2.509h13.36v68.045H92.753v-6.981
				c-1.879,2.99-4.021,5.164-6.425,6.519c-2.403,1.355-5.392,2.035-8.968,2.035c-5.885,0-10.84-2.382-14.862-7.143
				c-4.022-4.761-6.032-10.871-6.032-18.329c0-8.598,1.98-15.363,5.939-20.293c3.959-4.931,9.252-7.397,15.879-7.397
				C81.336,18.965,84.048,19.636,86.422,20.976z M89.656,56.871c1.942-2.773,2.914-6.363,2.914-10.771
				c0-6.164-1.557-10.57-4.669-13.221c-1.91-1.602-4.13-2.404-6.657-2.404c-3.853,0-6.68,1.456-8.482,4.369
				c-1.802,2.912-2.704,6.526-2.704,10.84c0,4.654,0.916,8.375,2.75,11.165c1.833,2.789,4.614,4.183,8.344,4.183
				C84.879,61.031,87.716,59.645,89.656,56.871z"/>
			<path opacity="0.8" fill="#333333" d="M150.365,21.188c3.514,1.574,6.419,4.059,8.708,7.454c2.062,2.993,3.4,6.466,4.013,10.417
				c0.356,2.314,0.5,5.648,0.435,10h-36.698c0.204,5.054,1.961,8.598,5.27,10.632c2.013,1.263,4.433,1.895,7.263,1.895
				c3.001,0,5.439-0.77,7.316-2.311c1.022-0.832,1.926-1.988,2.71-3.467h13.45c-0.353,2.99-1.982,6.025-4.883,9.107
				c-4.515,4.9-10.833,7.351-18.957,7.351c-6.706,0-12.622-2.067-17.75-6.2c-5.124-4.132-7.688-10.857-7.688-20.172
				c0-8.728,2.312-15.422,6.941-20.079c4.627-4.658,10.634-6.987,18.018-6.987C142.902,18.827,146.851,19.614,150.365,21.188z
				 M130.656,32.569c-1.86,1.919-3.03,4.519-3.508,7.799h22.697c-0.241-3.498-1.41-6.151-3.51-7.961
				c-2.1-1.811-4.704-2.717-7.812-2.717C135.138,29.689,132.518,30.65,130.656,32.569z"/>
			<path opacity="0.8" fill="#333333" d="M180.4,54.467c0.279,2.343,0.882,4.007,1.812,4.993c1.639,1.756,4.675,2.635,9.103,2.635
				c2.602,0,4.669-0.385,6.2-1.156c1.534-0.77,2.299-1.926,2.299-3.468c0-1.479-0.617-2.604-1.852-3.374
				c-1.235-0.771-5.829-2.096-13.782-3.975c-5.727-1.418-9.761-3.19-12.102-5.316c-2.343-2.095-3.513-5.115-3.513-9.061
				c0-4.653,1.829-8.652,5.489-11.996c3.66-3.343,8.811-5.016,15.45-5.016c6.3,0,11.434,1.256,15.403,3.768
				c3.968,2.512,6.248,6.85,6.833,13.012h-13.173c-0.188-1.694-0.666-3.035-1.438-4.021c-1.453-1.787-3.926-2.681-7.417-2.681
				c-2.875,0-4.922,0.447-6.142,1.34c-1.221,0.895-1.832,1.942-1.832,3.144c0,1.51,0.649,2.604,1.948,3.282
				c1.298,0.709,5.882,1.926,13.754,3.652c5.25,1.233,9.184,3.098,11.803,5.593c2.59,2.527,3.883,5.686,3.883,9.477
				c0,4.992-1.86,9.068-5.582,12.227c-3.721,3.158-9.471,4.739-17.252,4.739c-7.937,0-13.796-1.672-17.579-5.016
				c-3.784-3.344-5.674-7.604-5.674-12.782H180.4z"/>
			<path opacity="0.8" fill="#333333" d="M236.38,14.158h-13.359V2h13.359V14.158z M223.021,20.167h13.359v50.387h-13.359V20.167z"
				/>
			<path opacity="0.8" fill="#333333" d="M274.065,20.121c3.201,1.325,5.785,3.76,7.756,7.304v-7.257h12.851v47.798
				c0,6.502-1.094,11.402-3.281,14.7c-3.759,5.669-10.972,8.506-21.634,8.506c-6.441,0-11.695-1.264-15.763-3.791
				c-4.069-2.527-6.317-6.303-6.749-11.326h14.33c0.369,1.54,0.971,2.649,1.804,3.328c1.417,1.202,3.806,1.802,7.165,1.802
				c4.746,0,7.919-1.587,9.523-4.761c1.047-2.034,1.57-5.455,1.57-10.263v-3.235c-1.264,2.157-2.621,3.775-4.066,4.854
				c-2.621,2.003-6.026,3.005-10.217,3.005c-6.472,0-11.642-2.273-15.509-6.819c-3.868-4.545-5.801-10.701-5.801-18.467
				c0-7.488,1.861-13.783,5.585-18.884c3.724-5.1,9.003-7.651,15.836-7.651C269.986,18.965,272.188,19.351,274.065,20.121z
				 M278.553,56.247c2.117-2.326,3.176-6.032,3.176-11.118c0-4.776-1.005-8.413-3.016-10.909c-2.01-2.497-4.702-3.745-8.078-3.745
				c-4.603,0-7.779,2.173-9.529,6.518c-0.922,2.312-1.381,5.163-1.381,8.552c0,2.928,0.491,5.531,1.473,7.812
				c1.781,4.253,4.971,6.379,9.576,6.379C273.842,59.737,276.435,58.574,278.553,56.247z"/>
			<path opacity="0.8" fill="#333333" d="M347.599,23.056c3.299,2.728,4.95,7.251,4.95,13.568v33.93h-13.498V39.906
				c0-2.65-0.353-4.684-1.056-6.102c-1.286-2.588-3.733-3.883-7.343-3.883c-4.436,0-7.479,1.896-9.132,5.687
				c-0.856,2.004-1.285,4.561-1.285,7.673v27.274h-13.175V20.26h12.76v7.35c1.688-2.588,3.284-4.453,4.788-5.593
				c2.699-2.034,6.122-3.051,10.264-3.051C340.059,18.965,344.301,20.329,347.599,23.056z"/>
			<path opacity="0.8" fill="#333333" d="M411.059,39.906c2.453-0.308,4.206-0.693,5.261-1.156c1.894-0.801,2.841-2.049,2.841-3.744
				c0-2.065-0.726-3.49-2.179-4.276c-1.452-0.786-3.584-1.179-6.396-1.179c-3.156,0-5.39,0.771-6.701,2.312
				c-0.938,1.141-1.562,2.682-1.874,4.623h-12.713c0.277-4.406,1.517-8.027,3.714-10.863c3.497-4.438,9.5-6.657,18.014-6.657
				c5.54,0,10.461,1.095,14.763,3.282c4.302,2.189,6.454,6.318,6.454,12.389V57.75c0,1.603,0.029,3.544,0.092,5.824
				c0.092,1.727,0.354,2.898,0.786,3.514c0.432,0.617,1.079,1.125,1.942,1.525v1.942h-14.332c-0.399-1.017-0.678-1.971-0.831-2.866
				c-0.155-0.893-0.277-1.91-0.371-3.05c-1.829,1.972-3.937,3.651-6.323,5.038c-2.853,1.633-6.076,2.451-9.672,2.451
				c-4.587,0-8.377-1.303-11.367-3.907c-2.992-2.604-4.489-6.294-4.489-11.071c0-6.194,2.406-10.678,7.218-13.452
				c2.639-1.509,6.521-2.588,11.643-3.235L411.059,39.906z M419.114,46.054c-0.843,0.524-1.694,0.948-2.555,1.271
				c-0.857,0.324-2.038,0.624-3.538,0.901l-2.998,0.555c-2.812,0.494-4.83,1.095-6.055,1.803c-2.076,1.202-3.113,3.066-3.113,5.593
				c0,2.25,0.634,3.876,1.9,4.877c1.268,1.001,2.808,1.502,4.624,1.502c2.88,0,5.531-0.833,7.957-2.497
				c2.424-1.664,3.685-4.699,3.778-9.106V46.054z"/>
			<path opacity="0.8" fill="#333333" d="M484.384,23.056c3.298,2.728,4.949,7.251,4.949,13.568v33.93h-13.499V39.906
				c0-2.65-0.352-4.684-1.056-6.102c-1.285-2.588-3.732-3.883-7.342-3.883c-4.436,0-7.48,1.896-9.131,5.687
				c-0.857,2.004-1.286,4.561-1.286,7.673v27.274h-13.173V20.26h12.759v7.35c1.687-2.588,3.283-4.453,4.787-5.593
				c2.7-2.034,6.122-3.051,10.266-3.051C476.842,18.965,481.085,20.329,484.384,23.056z"/>
			<path opacity="0.8" fill="#333333" d="M528.302,20.976c2.373,1.341,4.299,3.198,5.779,5.57V2.509h13.358v68.045h-12.805v-6.981
				c-1.881,2.99-4.021,5.164-6.425,6.519c-2.403,1.355-5.394,2.035-8.969,2.035c-5.886,0-10.84-2.382-14.861-7.143
				c-4.022-4.761-6.033-10.871-6.033-18.329c0-8.598,1.98-15.363,5.939-20.293c3.961-4.931,9.254-7.397,15.88-7.397
				C523.217,18.965,525.929,19.636,528.302,20.976z M531.538,56.871c1.942-2.773,2.913-6.363,2.913-10.771
				c0-6.164-1.557-10.57-4.67-13.221c-1.911-1.602-4.129-2.404-6.658-2.404c-3.852,0-6.678,1.456-8.48,4.369
				c-1.803,2.912-2.705,6.526-2.705,10.84c0,4.654,0.918,8.375,2.751,11.165c1.832,2.789,4.614,4.183,8.344,4.183
				C526.76,61.031,529.596,59.645,531.538,56.871z"/>
			<path opacity="0.8" fill="#333333" d="M628.738,26.223c3.77,4.777,5.654,10.941,5.654,18.491c0,7.828-1.86,14.314-5.577,19.461
				s-8.906,7.72-15.564,7.72c-4.183,0-7.544-0.833-10.083-2.497c-1.519-0.985-3.16-2.711-4.926-5.178v6.333h-12.99V2.509h13.176
				v24.223c1.674-2.342,3.52-4.13,5.537-5.363c2.387-1.541,5.428-2.311,9.119-2.311C619.751,19.058,624.969,21.446,628.738,26.223z
				 M617.727,56.917c1.895-2.743,2.844-6.348,2.844-10.817c0-3.575-0.466-6.534-1.398-8.875c-1.771-4.438-5.035-6.657-9.789-6.657
				c-4.814,0-8.124,2.173-9.928,6.519c-0.933,2.311-1.398,5.301-1.398,8.968c0,4.315,0.965,7.889,2.891,10.724
				c1.927,2.836,4.864,4.253,8.811,4.253C613.175,61.031,615.832,59.661,617.727,56.917z"/>
			<path opacity="0.8" fill="#333333" d="M656.674,20.167v30.371c0,2.866,0.337,5.023,1.012,6.472
				c1.196,2.559,3.541,3.837,7.038,3.837c4.476,0,7.542-1.818,9.198-5.455c0.858-1.972,1.289-4.576,1.289-7.812V20.167h13.359
				v50.387h-12.805v-7.119c-0.123,0.155-0.432,0.617-0.922,1.387c-0.493,0.771-1.076,1.449-1.751,2.035
				c-2.062,1.849-4.051,3.113-5.971,3.791c-1.921,0.677-4.172,1.017-6.753,1.017c-7.438,0-12.446-2.682-15.029-8.043
				c-1.442-2.959-2.165-7.319-2.165-13.083V20.167H656.674z"/>
			<path opacity="0.8" fill="#333333" d="M714.918,14.158H701.56V2h13.358V14.158z M701.56,20.167h13.358v50.387H701.56V20.167z"/>
			<path opacity="0.8" fill="#333333" d="M741.129,70.554h-13.175V2.417h13.175V70.554z"/>
			<path opacity="0.8" fill="#333333" d="M780.699,20.976c2.373,1.341,4.299,3.198,5.778,5.57V2.509h13.359v68.045h-12.805v-6.981
				c-1.88,2.99-4.021,5.164-6.425,6.519c-2.405,1.355-5.395,2.035-8.968,2.035c-5.888,0-10.841-2.382-14.862-7.143
				c-4.021-4.761-6.033-10.871-6.033-18.329c0-8.598,1.98-15.363,5.941-20.293c3.959-4.931,9.252-7.397,15.879-7.397
				C775.614,18.965,778.325,19.636,780.699,20.976z M783.936,56.871c1.941-2.773,2.911-6.363,2.911-10.771
				c0-6.164-1.556-10.57-4.669-13.221c-1.91-1.602-4.129-2.404-6.655-2.404c-3.853,0-6.681,1.456-8.482,4.369
				c-1.804,2.912-2.705,6.526-2.705,10.84c0,4.654,0.917,8.375,2.75,11.165c1.833,2.789,4.616,4.183,8.345,4.183
				C779.157,61.031,781.994,59.645,783.936,56.871z"/>
			<path opacity="0.8" fill="#333333" d="M861.873,20.167h13.36l7.673,36.288l7.858-36.288h13.729l-14.607,50.387h-13.544
				l-7.905-36.704l-7.996,36.704h-13.685l-14.145-50.387h14.145l7.858,36.148L861.873,20.167z"/>
			<path opacity="0.8" fill="#333333" d="M944.585,21.188c3.517,1.574,6.417,4.059,8.708,7.454
				c2.064,2.993,3.402,6.466,4.015,10.417c0.355,2.314,0.499,5.648,0.434,10h-36.697c0.204,5.054,1.962,8.598,5.269,10.632
				c2.012,1.263,4.434,1.895,7.265,1.895c3.001,0,5.439-0.77,7.314-2.311c1.023-0.832,1.928-1.988,2.712-3.467h13.451
				c-0.356,2.99-1.984,6.025-4.886,9.107c-4.513,4.9-10.831,7.351-18.955,7.351c-6.706,0-12.622-2.067-17.749-6.2
				c-5.126-4.132-7.688-10.857-7.688-20.172c0-8.728,2.312-15.422,6.941-20.079c4.627-4.658,10.633-6.987,18.018-6.987
				C937.12,18.827,941.07,19.614,944.585,21.188z M924.877,32.569c-1.861,1.919-3.031,4.519-3.51,7.799h22.697
				c-0.24-3.498-1.41-6.151-3.51-7.961c-2.101-1.811-4.705-2.717-7.812-2.717C929.359,29.689,926.737,30.65,924.877,32.569z"/>
			<path opacity="0.8" fill="#333333" d="M1007.428,26.223c3.77,4.777,5.653,10.941,5.653,18.491c0,7.828-1.859,14.314-5.576,19.461
				s-8.905,7.72-15.565,7.72c-4.182,0-7.543-0.833-10.082-2.497c-1.52-0.985-3.16-2.711-4.926-5.178v6.333h-12.99V2.509h13.176
				v24.223c1.673-2.342,3.521-4.13,5.535-5.363c2.389-1.541,5.43-2.311,9.119-2.311C998.44,19.058,1003.658,21.446,1007.428,26.223z
				 M996.416,56.917c1.895-2.743,2.843-6.348,2.843-10.817c0-3.575-0.468-6.534-1.399-8.875c-1.77-4.438-5.032-6.657-9.787-6.657
				c-4.814,0-8.125,2.173-9.928,6.519c-0.932,2.311-1.398,5.301-1.398,8.968c0,4.315,0.963,7.889,2.891,10.724
				c1.926,2.836,4.861,4.253,8.809,4.253C991.864,61.031,994.521,59.661,996.416,56.917z"/>
			<path opacity="0.8" fill="#333333" d="M1090.91,25.576c4.109,4.344,6.164,10.724,6.164,19.138c0,8.875-2.008,15.64-6.025,20.293
				c-4.018,4.654-9.188,6.98-15.516,6.98c-4.032,0-7.382-1.001-10.051-3.004c-1.456-1.109-2.884-2.727-4.28-4.854v26.257h-13.035
				V20.167h12.62v7.442c1.426-2.187,2.945-3.913,4.559-5.177c2.947-2.249,6.451-3.375,10.515-3.375
				C1081.784,19.058,1086.801,21.23,1090.91,25.576z M1080.799,35.052c-1.791-2.989-4.693-4.484-8.709-4.484
				c-4.827,0-8.144,2.266-9.947,6.796c-0.936,2.403-1.401,5.454-1.401,9.152c0,5.856,1.569,9.97,4.712,12.344
				c1.869,1.386,4.079,2.08,6.634,2.08c3.705,0,6.531-1.417,8.479-4.253c1.945-2.835,2.919-6.611,2.919-11.326
				C1083.484,41.478,1082.588,38.042,1080.799,35.052z"/>
			<path opacity="0.8" fill="#333333" d="M1134.355,18.988c0.17,0.016,0.547,0.04,1.133,0.069v13.498
				c-0.832-0.092-1.571-0.154-2.219-0.185s-1.172-0.046-1.571-0.046c-5.302,0-8.86,1.727-10.679,5.178
				c-1.018,1.941-1.525,4.931-1.525,8.968v24.084h-13.268V20.167h12.574v8.783c2.033-3.358,3.805-5.655,5.315-6.888
				c2.466-2.064,5.669-3.097,9.615-3.097C1133.979,18.965,1134.186,18.973,1134.355,18.988z"/>
			<path opacity="0.8" fill="#333333" d="M1185.229,64.39c-4.252,5.25-10.709,7.875-19.369,7.875
				c-8.659,0-15.116-2.625-19.368-7.875c-4.254-5.25-6.379-11.57-6.379-18.96c0-7.266,2.125-13.564,6.379-18.891
				c4.252-5.327,10.709-7.99,19.368-7.99c8.66,0,15.117,2.664,19.369,7.99c4.253,5.327,6.381,11.625,6.381,18.891
				C1191.609,52.82,1189.481,59.141,1185.229,64.39z M1174.689,57.109c2.064-2.739,3.098-6.632,3.098-11.679
				s-1.033-8.932-3.098-11.655c-2.064-2.723-5.023-4.086-8.875-4.086c-3.853,0-6.819,1.363-8.899,4.086
				c-2.079,2.723-3.12,6.608-3.12,11.655s1.041,8.94,3.12,11.679c2.08,2.739,5.047,4.107,8.899,4.107
				C1169.666,61.216,1172.625,59.848,1174.689,57.109z"/>
			<path opacity="0.8" fill="#333333" d="M1195.306,80.215c0.74,0.062,1.265,0.1,1.572,0.116c0.308,0.015,0.584,0.023,0.833,0.023
				c1.293,0,2.271-0.317,2.935-0.948c0.662-0.632,0.993-1.857,0.993-3.674V20.398h13.176v55.564c0,5.085-1.003,8.844-3.007,11.279
				c-2.003,2.434-5.931,3.651-11.786,3.651c-0.401,0-0.995-0.015-1.78-0.046c-0.786-0.032-1.765-0.062-2.936-0.093V80.215z
				 M1214.814,14.158h-13.176V2h13.176V14.158z"/>
			<path opacity="0.8" fill="#333333" d="M1260.173,21.188c3.517,1.574,6.419,4.059,8.709,7.454
				c2.063,2.993,3.401,6.466,4.015,10.417c0.354,2.314,0.499,5.648,0.434,10h-36.698c0.204,5.054,1.962,8.598,5.269,10.632
				c2.012,1.263,4.434,1.895,7.266,1.895c3,0,5.439-0.77,7.313-2.311c1.024-0.832,1.929-1.988,2.713-3.467h13.45
				c-0.355,2.99-1.983,6.025-4.885,9.107c-4.514,4.9-10.832,7.351-18.955,7.351c-6.707,0-12.623-2.067-17.748-6.2
				c-5.128-4.132-7.689-10.857-7.689-20.172c0-8.728,2.312-15.422,6.94-20.079c4.627-4.658,10.634-6.987,18.019-6.987
				C1252.709,18.827,1256.658,19.614,1260.173,21.188z M1240.465,32.569c-1.861,1.919-3.031,4.519-3.51,7.799h22.697
				c-0.24-3.498-1.409-6.151-3.509-7.961c-2.101-1.811-4.705-2.717-7.813-2.717C1244.948,29.689,1242.326,30.65,1240.465,32.569z"/>
			<path opacity="0.8" fill="#333333" d="M1310.132,38.242c-0.245-1.88-0.88-3.575-1.899-5.085
				c-1.482-2.034-3.784-3.052-6.904-3.052c-4.45,0-7.492,2.205-9.129,6.611c-0.865,2.336-1.299,5.441-1.299,9.314
				c0,3.689,0.434,6.656,1.299,8.899c1.574,4.192,4.541,6.287,8.896,6.287c3.09,0,5.282-0.832,6.582-2.496
				c1.295-1.664,2.084-3.821,2.362-6.472h13.451c-0.31,4.007-1.759,7.797-4.349,11.373c-4.136,5.763-10.258,8.645-18.37,8.645
				c-8.114,0-14.083-2.404-17.907-7.212c-3.827-4.808-5.738-11.041-5.738-18.7c0-8.643,2.113-15.369,6.339-20.177
				c4.226-4.808,10.056-7.211,17.491-7.211c6.323,0,11.499,1.418,15.524,4.253c4.025,2.836,6.407,7.844,7.147,15.024H1310.132z"/>
			<path opacity="0.8" fill="#333333" d="M1327.468,30.013V20.63h7.026V6.577h13.036V20.63h8.182v9.383h-8.182V56.64
				c0,2.066,0.261,3.352,0.786,3.86c0.523,0.509,2.126,0.762,4.807,0.762c0.4,0,0.824-0.007,1.271-0.022
				c0.446-0.015,0.887-0.039,1.318-0.069v9.846l-6.241,0.231c-6.225,0.215-10.477-0.863-12.758-3.235
				c-1.479-1.51-2.219-3.837-2.219-6.981V30.013H1327.468z"/>
			<path opacity="0.8" fill="#333333" d="M1374.388,54.467c0.278,2.343,0.882,4.007,1.812,4.993
				c1.642,1.756,4.676,2.635,9.104,2.635c2.602,0,4.669-0.385,6.202-1.156c1.532-0.77,2.298-1.926,2.298-3.468
				c0-1.479-0.617-2.604-1.852-3.374c-1.236-0.771-5.83-2.096-13.784-3.975c-5.725-1.418-9.759-3.19-12.1-5.316
				c-2.343-2.095-3.514-5.115-3.514-9.061c0-4.653,1.829-8.652,5.489-11.996c3.66-3.343,8.811-5.016,15.45-5.016
				c6.3,0,11.435,1.256,15.403,3.768c3.968,2.512,6.246,6.85,6.833,13.012h-13.175c-0.186-1.694-0.664-3.035-1.437-4.021
				c-1.452-1.787-3.926-2.681-7.417-2.681c-2.873,0-4.922,0.447-6.142,1.34c-1.22,0.895-1.832,1.942-1.832,3.144
				c0,1.51,0.648,2.604,1.948,3.282c1.297,0.709,5.883,1.926,13.756,3.652c5.248,1.233,9.183,3.098,11.802,5.593
				c2.588,2.527,3.883,5.686,3.883,9.477c0,4.992-1.86,9.068-5.583,12.227c-3.721,3.158-9.472,4.739-17.253,4.739
				c-7.936,0-13.794-1.672-17.578-5.016c-3.783-3.344-5.673-7.604-5.673-12.782H1374.388z"/>
			<path opacity="0.8" fill="#333333" d="M49.118,177.996c-4.254,5.25-10.709,7.875-19.37,7.875c-8.661,0-15.116-2.625-19.37-7.875
				C6.126,172.747,4,166.427,4,159.036c0-7.266,2.126-13.563,6.378-18.89c4.253-5.327,10.709-7.991,19.37-7.991
				c8.66,0,15.116,2.664,19.37,7.991c4.252,5.326,6.378,11.624,6.378,18.89C55.496,166.427,53.37,172.747,49.118,177.996z
				 M38.578,170.714c2.064-2.738,3.097-6.63,3.097-11.678c0-5.047-1.033-8.933-3.097-11.654c-2.065-2.724-5.024-4.085-8.876-4.085
				c-3.853,0-6.818,1.361-8.899,4.085c-2.08,2.722-3.121,6.607-3.121,11.654c0,5.048,1.041,8.939,3.121,11.678
				c2.081,2.74,5.046,4.109,8.899,4.109C33.554,174.823,36.513,173.454,38.578,170.714z"/>
			<path opacity="0.8" fill="#333333" d="M85.775,115.397c0.676,0.047,1.601,0.116,2.773,0.209v10.725
				c-0.74-0.093-1.98-0.163-3.722-0.208c-1.741-0.045-2.943,0.339-3.604,1.156c-0.664,0.816-0.995,1.718-0.995,2.704
				c0,0.985,0,2.402,0,4.251h8.645v9.293h-8.645v40.634H67.146v-40.634h-7.397v-9.293h7.212v-3.233
				c0-5.393,0.908-9.108,2.727-11.141c1.91-3.021,6.518-4.531,13.822-4.531C84.343,115.329,85.097,115.353,85.775,115.397z"/>
			<path opacity="0.8" fill="#333333" d="M142.712,153.513c2.453-0.309,4.206-0.694,5.261-1.156c1.895-0.8,2.841-2.049,2.841-3.743
				c0-2.064-0.726-3.491-2.179-4.277c-1.452-0.785-3.584-1.179-6.396-1.179c-3.155,0-5.389,0.771-6.701,2.312
				c-0.938,1.141-1.561,2.68-1.874,4.622h-12.713c0.277-4.406,1.517-8.029,3.714-10.863c3.497-4.438,9.5-6.657,18.014-6.657
				c5.54,0,10.461,1.095,14.763,3.282c4.302,2.189,6.454,6.317,6.454,12.389v23.114c0,1.602,0.029,3.543,0.092,5.823
				c0.091,1.727,0.354,2.898,0.786,3.515c0.432,0.615,1.079,1.124,1.942,1.525v1.941h-14.332c-0.399-1.017-0.678-1.973-0.831-2.866
				c-0.154-0.894-0.277-1.911-0.37-3.05c-1.829,1.971-3.938,3.651-6.323,5.036c-2.852,1.634-6.076,2.45-9.672,2.45
				c-4.587,0-8.377-1.302-11.367-3.905c-2.992-2.604-4.489-6.294-4.489-11.071c0-6.194,2.406-10.679,7.218-13.452
				c2.639-1.509,6.521-2.588,11.643-3.235L142.712,153.513z M150.768,159.661c-0.843,0.524-1.694,0.947-2.555,1.271
				c-0.857,0.323-2.037,0.624-3.538,0.901l-2.998,0.554c-2.812,0.492-4.83,1.094-6.055,1.803c-2.076,1.201-3.113,3.067-3.113,5.594
				c0,2.25,0.634,3.875,1.9,4.876c1.268,1.003,2.808,1.503,4.624,1.503c2.88,0,5.531-0.832,7.957-2.496
				c2.425-1.663,3.685-4.7,3.778-9.106V159.661z"/>
			<path opacity="0.8" fill="#333333" d="M188.859,184.161h-13.173v-68.14h13.173V184.161z"/>
			<path opacity="0.8" fill="#333333" d="M215.163,184.161h-13.175v-68.14h13.175V184.161z"/>
			<g opacity="0.8">
				<path fill="#333333" stroke="#333333" stroke-miterlimit="10" d="M282.052,123.512c0,2.032,0.593,3.852,1.78,5.453
					c1.185,1.604,2.757,3.091,4.714,4.462s4.176,2.675,6.658,3.905c2.479,1.234,5.022,2.506,7.627,3.815
					c2.604,1.309,5.146,2.712,7.626,4.205c2.482,1.496,4.7,3.184,6.658,5.063c1.956,1.879,3.528,4.005,4.714,6.378
					c1.186,2.374,1.78,5.086,1.78,8.137c0,2.774-0.449,5.323-1.341,7.649c-0.894,2.328-2.12,4.416-3.675,6.265
					c-1.557,1.85-3.397,3.483-5.524,4.9c-2.126,1.417-4.424,2.588-6.889,3.513c-2.465,0.925-5.054,1.626-7.766,2.104
					c-2.713,0.476-5.439,0.715-8.181,0.715c-3.853,0-7.598-0.471-11.234-1.41c-3.637-0.939-6.871-2.357-9.708-4.252
					s-5.108-4.269-6.817-7.118c-1.712-2.851-2.566-6.188-2.566-10.01c0-1.972,0.314-3.703,0.948-5.2
					c0.63-1.494,1.417-2.74,2.356-3.744c0.94-1,1.965-1.756,3.074-2.265c1.11-0.509,2.142-0.763,3.097-0.763
					c0.986,0,1.811,0.27,2.474,0.808c0.662,0.539,0.994,1.38,0.994,2.52c0,0.525-0.061,1.079-0.184,1.666
					c-0.125,0.584-0.255,1.225-0.394,1.917c-0.14,0.693-0.271,1.457-0.394,2.288c-0.123,0.832-0.184,1.741-0.184,2.727
					c0,2.158,0.493,4.021,1.479,5.594s2.295,2.867,3.929,3.884c1.633,1.017,3.514,1.771,5.64,2.265c2.126,0.494,4.33,0.74,6.61,0.74
					c2.682,0,5.362-0.323,8.044-0.971c2.681-0.647,5.084-1.602,7.21-2.866c2.126-1.264,3.853-2.812,5.178-4.646
					c1.324-1.832,1.987-3.936,1.987-6.309c0-2.188-0.593-4.145-1.779-5.871c-1.187-1.727-2.759-3.321-4.716-4.785
					c-1.957-1.463-4.183-2.843-6.678-4.136c-2.497-1.295-5.04-2.604-7.629-3.93c-2.587-1.325-5.13-2.72-7.626-4.185
					c-2.497-1.464-4.724-3.073-6.679-4.83c-1.958-1.758-3.531-3.721-4.716-5.893c-1.187-2.173-1.778-4.646-1.778-7.42
					c0-2.59,0.624-5.139,1.872-7.652c1.247-2.511,3.126-4.761,5.639-6.748c2.511-1.988,5.646-3.598,9.407-4.831
					c3.759-1.232,8.166-1.849,13.22-1.849c3.205,0,6.34,0.479,9.409,1.434c3.065,0.954,5.801,2.311,8.204,4.067
					c2.403,1.757,4.336,3.853,5.8,6.286c1.464,2.436,2.196,5.131,2.196,8.091c0,1.757-0.3,3.559-0.901,5.408
					c-0.601,1.848-1.563,3.776-2.889,5.778c-1.295,1.94-2.705,3.382-4.23,4.322s-2.905,1.41-4.137,1.41
					c-0.924,0-1.68-0.271-2.264-0.81c-0.587-0.538-0.878-1.349-0.878-2.428c0-0.799,0.184-1.747,0.554-2.843
					c0.371-1.093,1-2.348,1.896-3.766c0.832-1.356,1.447-2.628,1.849-3.815c0.399-1.186,0.601-2.288,0.601-3.304
					c0-1.572-0.424-2.952-1.272-4.14c-0.848-1.185-2.018-2.179-3.514-2.98c-1.493-0.802-3.29-1.402-5.384-1.802
					c-2.097-0.401-4.392-0.601-6.889-0.601c-2.773,0-5.185,0.315-7.234,0.946c-2.049,0.631-3.761,1.449-5.132,2.451
					c-1.37,1.001-2.388,2.117-3.05,3.352C282.385,121.093,282.052,122.31,282.052,123.512z"/>
				<path fill="#333333" stroke="#333333" stroke-miterlimit="10" d="M348.389,155.408c1.263-1.665,2.682-3.453,4.253-5.362
					c1.571-1.911,3.204-3.689,4.9-5.341c1.694-1.647,3.38-3.018,5.062-4.113c1.679-1.093,3.259-1.641,4.738-1.641
					c0.37,0,0.786,0.069,1.249,0.206c0.462,0.141,0.901,0.395,1.318,0.765c0.415,0.369,0.761,0.887,1.038,1.55
					c0.278,0.661,0.417,1.516,0.417,2.563c0,2.096-0.293,4.138-0.878,6.127c-0.586,1.985-1.225,3.975-1.919,5.961
					c-0.694,1.988-1.325,4.016-1.895,6.08c-0.57,2.065-0.854,4.222-0.854,6.472c0,1.233,0.185,2.219,0.554,2.959
					c0.37,0.74,0.849,1.108,1.434,1.108c0.739,0,1.525-0.152,2.358-0.462c0.831-0.308,1.664-0.708,2.496-1.201
					c0.832-0.493,1.648-1.056,2.45-1.688c0.801-0.63,1.555-1.287,2.265-1.963c1.694-1.572,3.358-3.36,4.992-5.364l0.788,12.297
					c-0.555,0.432-1.257,0.971-2.103,1.618c-0.849,0.647-1.788,1.333-2.82,2.056c-1.034,0.727-2.149,1.457-3.352,2.196
					c-1.203,0.741-2.412,1.396-3.629,1.966s-2.436,1.04-3.653,1.408c-1.216,0.37-2.38,0.557-3.49,0.557
					c-1.696,0-3.166-0.454-4.414-1.363c-1.249-0.911-2.273-2.065-3.074-3.469c-0.802-1.401-1.403-2.934-1.804-4.599
					c-0.401-1.664-0.601-3.236-0.601-4.716c0-0.986,0.131-2.087,0.392-3.305c0.263-1.217,0.587-2.441,0.971-3.675
					c0.385-1.232,0.817-2.435,1.295-3.606c0.479-1.171,0.925-2.219,1.34-3.142c0.416-0.925,0.777-1.681,1.086-2.267
					c0.308-0.585,0.509-0.925,0.601-1.017l-0.971-0.139c-0.524,0.339-1.409,1.202-2.657,2.589c-1.249,1.386-2.659,3.137-4.23,5.246
					c-1.571,2.112-3.198,4.484-4.876,7.119c-1.682,2.636-3.198,5.354-4.554,8.159c-0.678,1.387-1.232,2.596-1.664,3.628
					c-0.432,1.034-0.855,1.881-1.27,2.544c-0.417,0.661-0.872,1.163-1.365,1.501c-0.493,0.34-1.125,0.51-1.896,0.51
					c-1.016,0-1.818-0.294-2.403-0.88c-0.586-0.583-1.033-1.362-1.342-2.333c-0.308-0.972-0.507-2.074-0.601-3.306
					c-0.092-1.232-0.137-2.496-0.137-3.791c0-2.063,0.023-4.769,0.069-8.112c0.045-3.343,0.192-7.05,0.438-11.118
					s0.601-8.35,1.065-12.851c0.46-4.499,1.115-8.944,1.963-13.336c0.848-4.393,1.91-8.584,3.19-12.572
					c1.277-3.992,2.835-7.506,4.669-10.542c1.833-3.035,3.982-5.447,6.448-7.235c2.464-1.787,5.299-2.681,8.506-2.681
					c1.664,0,3.027,0.248,4.09,0.74c1.064,0.493,1.91,1.186,2.542,2.08c0.63,0.894,1.07,1.965,1.318,3.213
					c0.245,1.249,0.37,2.643,0.37,4.183c0,2.281-0.324,4.808-0.971,7.58c-0.646,2.774-1.502,5.656-2.565,8.646
					c-1.065,2.99-2.273,6.017-3.628,9.084c-1.358,3.066-2.745,6.04-4.162,8.922c-1.417,2.881-2.812,5.601-4.182,8.158
					c-1.374,2.56-2.583,4.808-3.629,6.75L348.389,155.408z M352.502,126.839c1.818-4.715,3.135-8.691,3.952-11.925
					c0.816-3.236,1.225-5.625,1.225-7.166c0-2.343-0.308-3.513-0.925-3.513c-0.8,0-1.985,1.31-3.558,3.929
					c-1.572,2.619-3.421,6.425-5.547,11.419c-0.525,1.694-1.011,3.45-1.457,5.269c-0.448,1.818-0.847,3.629-1.202,5.432
					s-0.678,3.575-0.971,5.317c-0.293,1.74-0.547,3.397-0.763,4.97c-0.525,3.666-0.925,7.256-1.202,10.771
					c0.832-1.942,1.741-4.053,2.727-6.336c0.986-2.278,1.958-4.536,2.914-6.771c0.954-2.235,1.855-4.347,2.704-6.333
					C351.247,129.913,351.948,128.227,352.502,126.839z"/>
				<path fill="#333333" stroke="#333333" stroke-miterlimit="10" d="M428.175,172.834c-0.708,0.987-1.656,2.144-2.843,3.469
					c-1.187,1.324-2.52,2.588-3.999,3.79c-1.479,1.202-3.066,2.219-4.761,3.052c-1.696,0.83-3.391,1.247-5.085,1.247
					c-2.034,0-3.73-0.655-5.085-1.966c-1.356-1.309-2.527-3.211-3.513-5.708c-0.741,0.863-1.649,1.743-2.727,2.635
					c-1.079,0.895-2.259,1.703-3.537,2.426c-1.279,0.726-2.612,1.318-3.999,1.781c-1.387,0.462-2.773,0.692-4.16,0.692
					c-1.479,0-2.921-0.3-4.322-0.901c-1.402-0.601-2.643-1.464-3.72-2.588c-1.079-1.125-1.942-2.496-2.59-4.113
					c-0.647-1.619-0.971-3.445-0.971-5.479c0-2.312,0.324-4.685,0.971-7.117c0.647-2.436,1.54-4.816,2.68-7.143
					c1.14-2.328,2.489-4.524,4.045-6.59c1.558-2.063,3.261-3.866,5.109-5.407c1.85-1.541,3.797-2.767,5.848-3.675
					c2.048-0.908,4.136-1.363,6.263-1.363c0.709,0,1.263,0.138,1.664,0.415c0.399,0.279,0.732,0.593,0.994,0.948
					c0.261,0.354,0.517,0.701,0.763,1.039c0.247,0.341,0.554,0.587,0.925,0.741c0.369,0.155,0.747,0.254,1.133,0.3
					c0.385,0.047,0.777,0.068,1.178,0.068c0.338,0,0.685-0.007,1.04-0.021c0.354-0.016,0.701-0.023,1.04-0.023
					c0.463,0,0.894,0.045,1.295,0.138c0.399,0.093,0.755,0.294,1.063,0.6c0.308,0.311,0.547,0.742,0.716,1.296
					c0.169,0.554,0.255,1.311,0.255,2.266c0,1.479-0.155,3.121-0.462,4.923c-0.31,1.803-0.647,3.651-1.018,5.547
					c-0.371,1.896-0.708,3.791-1.017,5.687c-0.308,1.894-0.462,3.691-0.462,5.385c0,1.449,0.131,2.582,0.394,3.397
					c0.259,0.817,0.822,1.226,1.686,1.226c0.647,0,1.326-0.161,2.036-0.485c0.707-0.322,1.423-0.747,2.149-1.271
					c0.723-0.525,1.446-1.117,2.172-1.781c0.723-0.661,1.409-1.348,2.057-2.057c1.509-1.664,3.036-3.544,4.576-5.639
					L428.175,172.834z M388.698,169.183c0,0.771,0.053,1.518,0.161,2.243c0.108,0.723,0.3,1.37,0.579,1.941
					c0.277,0.569,0.646,1.032,1.11,1.386c0.46,0.355,1.047,0.531,1.755,0.531c1.141,0,2.173-0.492,3.097-1.479
					c0.925-0.986,1.727-2.172,2.403-3.56c0.68-1.387,1.225-2.818,1.642-4.299c0.417-1.479,0.685-2.711,0.81-3.698l2.818-13.59
					c-1.263,0-2.496,0.315-3.698,0.946c-1.201,0.633-2.333,1.486-3.397,2.565c-1.062,1.079-2.042,2.312-2.934,3.698
					c-0.896,1.389-1.666,2.844-2.313,4.369c-0.647,1.524-1.148,3.06-1.502,4.6C388.875,166.379,388.698,167.826,388.698,169.183z"/>
				<path fill="#333333" stroke="#333333" stroke-miterlimit="10" d="M441.581,175.932c3.113,0,5.948-0.307,8.506-0.924
					c2.558-0.616,4.876-1.448,6.957-2.497c2.081-1.047,3.959-2.272,5.639-3.675c1.68-1.401,3.197-2.905,4.554-4.506l0.509,10.585
					c-0.987,1.202-2.182,2.365-3.585,3.489c-1.401,1.126-2.934,2.112-4.599,2.959c-1.663,0.847-3.413,1.525-5.247,2.034
					c-1.833,0.508-3.644,0.764-5.431,0.764c-0.216,0-0.485-0.031-0.809-0.092c-0.324-0.062-0.887-0.17-1.688-0.324
					c-0.802-0.155-1.95-0.361-3.444-0.625c-1.495-0.263-3.521-0.577-6.078-0.947v0.831c0,5.608-0.471,10.702-1.412,15.279
					c-0.939,4.576-2.194,8.481-3.766,11.718c-1.571,3.234-3.375,5.731-5.409,7.488c-2.033,1.758-4.144,2.635-6.333,2.635
					c-1.757,0-3.22-0.432-4.391-1.295c-1.172-0.863-2.104-2.025-2.797-3.488c-0.694-1.465-1.187-3.175-1.479-5.132
					c-0.294-1.958-0.44-4.028-0.44-6.218c0-1.263,0.201-2.688,0.601-4.276c0.401-1.586,0.94-3.251,1.619-4.992
					c0.678-1.741,1.44-3.512,2.288-5.315s1.718-3.553,2.612-5.246c2.096-3.945,4.484-8.014,7.166-12.205
					c0.338-2.403,0.685-4.868,1.04-7.396c0.354-2.525,0.8-4.978,1.34-7.351s1.218-4.621,2.034-6.748
					c0.815-2.127,1.865-3.976,3.143-5.548c1.28-1.571,2.812-2.819,4.601-3.743c1.786-0.925,3.944-1.389,6.471-1.389
					c1.88,0,3.636,0.255,5.27,0.765c1.632,0.507,3.067,1.333,4.299,2.473c1.232,1.141,2.204,2.61,2.912,4.414
					c0.709,1.802,1.063,4.015,1.063,6.634c0,2.097-0.308,4.121-0.925,6.078c-0.617,1.958-1.579,3.83-2.889,5.617
					s-2.975,3.46-4.993,5.016c-2.018,1.556-4.414,2.952-7.188,4.183L441.581,175.932z M419.669,204.547
					c0,0.246,0.054,0.646,0.162,1.202c0.108,0.555,0.284,1.108,0.531,1.663c0.248,0.555,0.57,1.047,0.971,1.479
					c0.4,0.431,0.894,0.646,1.479,0.646c0.525,0,0.957-0.284,1.295-0.855c0.338-0.569,0.615-1.332,0.833-2.287
					c0.214-0.955,0.369-2.034,0.462-3.235c0.092-1.202,0.169-2.436,0.23-3.699c0.062-1.264,0.1-2.495,0.117-3.697
					c0.015-1.202,0.053-2.28,0.115-3.236c0.092-1.663,0.162-3.075,0.208-4.23c0.046-1.154,0.085-2.118,0.114-2.888
					c0.032-0.863,0.062-1.589,0.093-2.173c-0.586,1.016-1.154,2.196-1.71,3.536c-0.554,1.342-1.079,2.735-1.57,4.183
					c-0.495,1.448-0.942,2.897-1.342,4.347c-0.401,1.448-0.747,2.795-1.04,4.043c-0.293,1.249-0.525,2.328-0.692,3.237
					C419.754,203.49,419.669,204.146,419.669,204.547z M435.755,171.262c1.85-0.923,3.444-1.956,4.787-3.097
					c1.34-1.139,2.496-2.356,3.467-3.651c0.97-1.295,1.763-2.634,2.38-4.022c0.615-1.385,1.108-2.802,1.479-4.251
					c0.154-0.678,0.254-1.473,0.3-2.381c0.047-0.909-0.046-1.764-0.277-2.565c-0.23-0.803-0.633-1.487-1.202-2.059
					c-0.572-0.569-1.365-0.854-2.379-0.854c-1.142,0-2.144,0.315-3.006,0.945c-0.863,0.634-1.611,1.487-2.241,2.566
					c-0.633,1.079-1.156,2.359-1.572,3.837c-0.417,1.479-0.755,3.067-1.018,4.761c-0.263,1.696-0.446,3.461-0.554,5.294
					C435.811,167.62,435.755,169.445,435.755,171.262z"/>
				<path fill="#333333" stroke="#333333" stroke-miterlimit="10" d="M477.822,184.161c-2.897,0-5.432-0.523-7.604-1.572
					c-2.172-1.048-3.982-2.458-5.432-4.23c-1.448-1.771-2.535-3.821-3.257-6.148c-0.727-2.326-1.088-4.769-1.088-7.326
					c0-1.727,0.169-3.553,0.51-5.478c0.338-1.926,0.854-3.813,1.547-5.663s1.564-3.613,2.612-5.293
					c1.047-1.68,2.272-3.158,3.675-4.438s2.975-2.295,4.716-3.051s3.675-1.133,5.801-1.133c1.727,0,3.329,0.276,4.808,0.832
					c1.48,0.555,2.766,1.333,3.86,2.335c1.093,1.001,1.948,2.211,2.566,3.628c0.615,1.418,0.924,3.004,0.924,4.763
					c0,1.91-0.471,3.821-1.412,5.73c-0.939,1.912-2.24,3.714-3.905,5.409c-1.665,1.695-3.646,3.206-5.941,4.531
					c-2.295,1.323-4.783,2.356-7.464,3.097c0.462,0.831,0.917,1.525,1.363,2.079c0.446,0.555,0.901,0.987,1.363,1.295
					c0.462,0.31,0.948,0.525,1.457,0.647c0.507,0.123,1.056,0.185,1.641,0.185c1.849,0,3.798-0.369,5.849-1.109
					c2.048-0.74,4.044-1.665,5.984-2.773c1.943-1.109,3.776-2.317,5.502-3.629c1.725-1.31,3.189-2.551,4.391-3.72l5.964,6.192
					c-2.713,2.804-5.594,5.286-8.645,7.442c-1.326,0.925-2.75,1.834-4.275,2.728s-3.129,1.688-4.81,2.382
					c-1.68,0.693-3.419,1.247-5.223,1.663C481.497,183.952,479.671,184.161,477.822,184.161z M471.674,162.435
					c1.109,0,2.319-0.286,3.629-0.854c1.309-0.572,2.526-1.304,3.651-2.196c1.125-0.894,2.073-1.865,2.843-2.914
					c0.77-1.046,1.155-2.062,1.155-3.05c0-1.387-0.253-2.526-0.761-3.421c-0.51-0.894-1.133-1.34-1.873-1.34
					c-1.325,0-2.458,0.246-3.397,0.739c-0.94,0.491-1.727,1.132-2.358,1.919c-0.631,0.784-1.141,1.679-1.525,2.68
					c-0.387,1.003-0.678,2.013-0.88,3.028c-0.199,1.017-0.329,2.004-0.392,2.959C471.704,160.939,471.674,161.756,471.674,162.435z"
					/>
				<path fill="#333333" stroke="#333333" stroke-miterlimit="10" d="M497.1,166.41c1.724-1.479,3.126-2.713,4.205-3.699
					c1.079-0.985,2.004-1.887,2.774-2.703c0.771-0.816,1.471-1.642,2.103-2.474c0.633-0.832,1.379-1.818,2.242-2.959
					c0.863-1.14,1.911-2.535,3.145-4.183c1.231-1.647,2.835-3.706,4.806-6.172c0.401-0.554,0.85-1.094,1.343-1.618
					c0.492-0.523,1.039-0.994,1.641-1.408c0.6-0.418,1.264-0.756,1.987-1.018c0.723-0.264,1.534-0.395,2.426-0.395
					c1.48,0,2.619,0.163,3.421,0.487c0.803,0.322,1.389,0.714,1.758,1.179c0.369,0.46,0.585,0.946,0.646,1.455
					c0.062,0.508,0.093,0.947,0.093,1.317c0,0.739-0.293,1.557-0.878,2.45c-0.587,0.894-1.234,1.756-1.941,2.588
					c-0.709,0.833-1.38,1.596-2.011,2.288c-0.633,0.694-0.994,1.21-1.088,1.549c0,0.956,0.07,1.825,0.209,2.613
					c0.139,0.784,0.324,1.555,0.555,2.31c0.231,0.756,0.471,1.558,0.717,2.404c0.246,0.849,0.485,1.826,0.716,2.936
					s0.417,2.389,0.554,3.837c0.141,1.448,0.211,3.16,0.211,5.132c1.107-0.741,2.303-1.41,3.581-2.012s2.612-1.226,3.998-1.871
					c1.387-0.648,2.812-1.364,4.276-2.151c1.464-0.784,2.937-1.732,4.415-2.843l0.047,10.355c-1.912,1.479-4.122,2.867-6.635,4.16
					c-2.512,1.294-5.146,2.436-7.903,3.421c-2.76,0.987-5.547,1.765-8.368,2.334c-2.82,0.569-5.494,0.855-8.02,0.855
					c-1.82,0-3.515-0.17-5.085-0.507c-1.572-0.339-2.952-0.873-4.137-1.596c-1.188-0.724-2.15-1.672-2.891-2.844
					c-0.739-1.169-1.187-2.589-1.34-4.252c-0.432,0.093-0.856,0.154-1.271,0.183c-0.417,0.033-0.825,0.048-1.226,0.048
					c-0.493,0-0.955-0.015-1.387-0.048c-0.432-0.028-0.802-0.145-1.108-0.346c-0.31-0.199-0.556-0.522-0.741-0.97
					c-0.184-0.446-0.277-1.087-0.277-1.918c0-0.741,0.186-1.426,0.554-2.059c0.37-0.631,0.802-1.193,1.295-1.687
					c0.493-0.493,0.986-0.925,1.479-1.295S496.852,166.626,497.1,166.41z M503.017,172.327c0.368,0,0.776,0.229,1.224,0.692
					c0.446,0.462,0.963,0.972,1.549,1.526c0.585,0.555,1.265,1.062,2.034,1.525c0.771,0.461,1.648,0.692,2.634,0.692
					c1.203,0,2.196-0.199,2.984-0.601c0.784-0.4,1.408-0.932,1.871-1.596c0.462-0.661,0.785-1.433,0.97-2.311
					c0.187-0.878,0.277-1.795,0.277-2.75c0-0.832-0.053-1.681-0.161-2.544c-0.107-0.861-0.247-1.686-0.416-2.473
					c-0.171-0.785-0.354-1.525-0.555-2.218c-0.201-0.692-0.377-1.288-0.531-1.781L503.017,172.327z"/>
			</g>
			<path opacity="0.8" fill="#333333" d="M585.054,153.513c2.453-0.309,4.206-0.694,5.264-1.156c1.895-0.8,2.841-2.049,2.841-3.743
				c0-2.064-0.728-3.491-2.18-4.277c-1.453-0.785-3.585-1.179-6.396-1.179c-3.154,0-5.389,0.771-6.699,2.312
				c-0.938,1.141-1.563,2.68-1.875,4.622h-12.713c0.277-4.406,1.517-8.029,3.716-10.863c3.497-4.438,9.5-6.657,18.012-6.657
				c5.542,0,10.462,1.095,14.765,3.282c4.302,2.189,6.453,6.317,6.453,12.389v23.114c0,1.602,0.03,3.543,0.093,5.823
				c0.092,1.727,0.353,2.898,0.784,3.515c0.432,0.615,1.079,1.124,1.942,1.525v1.941h-14.331c-0.399-1.017-0.677-1.973-0.831-2.866
				s-0.277-1.911-0.37-3.05c-1.829,1.971-3.938,3.651-6.323,5.036c-2.853,1.634-6.075,2.45-9.671,2.45
				c-4.588,0-8.378-1.302-11.369-3.905c-2.992-2.604-4.486-6.294-4.486-11.071c0-6.194,2.404-10.679,7.217-13.452
				c2.64-1.509,6.521-2.588,11.643-3.235L585.054,153.513z M593.109,159.661c-0.842,0.524-1.694,0.947-2.553,1.271
				c-0.859,0.323-2.037,0.624-3.538,0.901l-2.999,0.554c-2.811,0.492-4.83,1.094-6.055,1.803c-2.075,1.201-3.112,3.067-3.112,5.594
				c0,2.25,0.633,3.875,1.9,4.876c1.267,1.003,2.809,1.503,4.624,1.503c2.878,0,5.529-0.832,7.955-2.496
				c2.426-1.663,3.685-4.7,3.777-9.106V159.661z"/>
			<path opacity="0.8" fill="#333333" d="M658.381,136.662c3.299,2.728,4.948,7.25,4.948,13.568v33.931h-13.497v-30.648
				c0-2.65-0.354-4.684-1.056-6.103c-1.286-2.588-3.733-3.883-7.343-3.883c-4.436,0-7.479,1.896-9.131,5.687
				c-0.856,2.004-1.285,4.561-1.285,7.674v27.273h-13.175v-50.295h12.758v7.35c1.688-2.589,3.284-4.453,4.788-5.592
				c2.7-2.037,6.122-3.053,10.266-3.053C650.841,132.571,655.082,133.935,658.381,136.662z"/>
			<path opacity="0.8" fill="#333333" d="M702.299,134.583c2.373,1.341,4.3,3.197,5.777,5.57v-24.038h13.36v68.046h-12.805v-6.981
				c-1.879,2.99-4.022,5.163-6.427,6.519c-2.402,1.356-5.393,2.033-8.966,2.033c-5.888,0-10.841-2.381-14.862-7.142
				c-4.022-4.761-6.033-10.871-6.033-18.328c0-8.598,1.98-15.363,5.94-20.293c3.96-4.933,9.252-7.397,15.88-7.397
				C697.214,132.571,699.926,133.241,702.299,134.583z M705.535,170.478c1.94-2.772,2.911-6.363,2.911-10.771
				c0-6.163-1.556-10.57-4.669-13.221c-1.91-1.603-4.129-2.406-6.654-2.406c-3.854,0-6.682,1.458-8.484,4.37
				c-1.804,2.913-2.703,6.526-2.703,10.84c0,4.654,0.915,8.377,2.749,11.165c1.835,2.787,4.616,4.182,8.345,4.182
				S703.594,173.251,705.535,170.478z"/>
			<path opacity="0.8" fill="#333333" d="M760.949,163.427c0.379,5.934,2.319,10.65,5.822,14.154
				c3.503,3.502,8.282,5.254,14.344,5.254c5.3,0,9.717-1.325,13.254-3.976c4.038-2.902,6.059-6.879,6.059-11.929
				c0-5.238-2.116-9.184-6.344-11.834c-2.082-1.389-6.627-3.03-13.633-4.923c-0.064-0.062-0.474-0.189-1.23-0.38
				c-7.826-2.207-12.781-4.261-14.863-6.153c-3.219-2.901-4.829-6.658-4.829-11.267c0-5.807,2.021-10.254,6.06-13.349
				c3.723-2.966,8.52-4.448,14.39-4.448c6.376,0,11.486,1.736,15.337,5.207c3.978,3.471,6.122,8.394,6.439,14.769h-3.031
				c-0.127-5.491-1.987-9.783-5.585-12.876c-3.472-2.967-7.922-4.45-13.349-4.45c-5.051,0-9.121,1.264-12.212,3.788
				c-3.347,2.651-5.019,6.437-5.019,11.359c0,3.535,1.388,6.598,4.165,9.185c2.084,1.893,6.562,3.724,13.443,5.491
				c0.127,0.063,0.299,0.111,0.521,0.14c0.221,0.034,0.489,0.113,0.805,0.237c7.258,1.958,12.244,3.788,14.959,5.491
				c4.796,3.095,7.195,7.48,7.195,13.16c0,6.313-2.242,11.236-6.722,14.768c-4.104,3.159-9.405,4.735-15.905,4.735
				c-6.88,0-12.341-1.988-16.378-5.966c-4.104-3.849-6.376-9.245-6.816-16.188H760.949z"/>
			<path opacity="0.8" fill="#333333" d="M816.047,116.092h3.125v68.069h-3.125V116.092z"/>
			<path opacity="0.8" fill="#333333" d="M828.258,181.035l43.739-62.01h-40.048v-2.934h43.456v3.218l-43.738,62.012h44.874v2.84
				h-48.283V181.035z"/>
			<path opacity="0.8" fill="#333333" d="M885.251,116.092h41.562v3.028H888.47v28.118h30.39v2.936h-30.39v30.957h39.289v3.03
				h-42.508V116.092z"/>
			<path opacity="0.8" fill="#333333" d="M938.549,163.427c0.38,5.934,2.321,10.65,5.823,14.154
				c3.502,3.502,8.283,5.254,14.343,5.254c5.302,0,9.719-1.325,13.254-3.976c4.038-2.902,6.06-6.879,6.06-11.929
				c0-5.238-2.116-9.184-6.344-11.834c-2.083-1.389-6.627-3.03-13.633-4.923c-0.063-0.062-0.474-0.189-1.23-0.38
				c-7.826-2.207-12.781-4.261-14.864-6.153c-3.219-2.901-4.828-6.658-4.828-11.267c0-5.807,2.02-10.254,6.059-13.349
				c3.724-2.966,8.521-4.448,14.391-4.448c6.375,0,11.486,1.736,15.337,5.207c3.977,3.471,6.122,8.394,6.438,14.769h-3.03
				c-0.127-5.491-1.987-9.783-5.585-12.876c-3.473-2.967-7.923-4.45-13.349-4.45c-5.052,0-9.12,1.264-12.212,3.788
				c-3.348,2.651-5.019,6.437-5.019,11.359c0,3.535,1.387,6.598,4.165,9.185c2.083,1.893,6.563,3.724,13.443,5.491
				c0.126,0.063,0.299,0.111,0.52,0.14c0.223,0.034,0.489,0.113,0.806,0.237c7.258,1.958,12.245,3.788,14.959,5.491
				c4.796,3.095,7.195,7.48,7.195,13.16c0,6.313-2.242,11.236-6.722,14.768c-4.104,3.159-9.405,4.735-15.905,4.735
				c-6.88,0-12.341-1.988-16.378-5.966c-4.104-3.849-6.376-9.245-6.815-16.188H938.549z"/>
			<path opacity="0.8" fill="#333333" d="M993.502,174.083h9.662v10.078h-9.662V174.083z"/>
		</g>
	</g>
	<defs>
		<filter id="Adobe_OpacityMaskFilter" filterUnits="userSpaceOnUse" x="4" y="2" width="1403.116" height="218.624">
			
				<feColorMatrix  type="matrix" values="-1 0 0 0 1  0 -1 0 0 1  0 0 -1 0 1  0 0 0 1 0" color-interpolation-filters="sRGB" result="source"/>
		</filter>
	</defs>
	<mask maskUnits="userSpaceOnUse" x="4" y="2" width="1403.116" height="218.624" id="SVGID_1_">
		<g filter="url(#Adobe_OpacityMaskFilter)">
			
				<image overflow="visible" width="1408" height="224" xlink:href="4A009066D1A826E3.jpg"  transform="matrix(1 0 0 1 1.3848 -0.6924)">
			</image>
		</g>
	</mask>
	<g opacity="0.75" mask="url(#SVGID_1_)">
		<g>
			<path opacity="0.8" d="M21.148,70.554H7.004V2.417h14.145V70.554z"/>
			<path opacity="0.8" d="M86.422,20.976c2.371,1.341,4.298,3.198,5.777,5.57V2.509h13.36v68.045H92.753v-6.981
				c-1.879,2.99-4.021,5.164-6.425,6.519c-2.403,1.355-5.392,2.035-8.968,2.035c-5.885,0-10.84-2.382-14.862-7.143
				c-4.022-4.761-6.032-10.871-6.032-18.329c0-8.598,1.98-15.363,5.939-20.293c3.959-4.931,9.252-7.397,15.879-7.397
				C81.336,18.965,84.048,19.636,86.422,20.976z M89.656,56.871c1.942-2.773,2.914-6.363,2.914-10.771
				c0-6.164-1.557-10.57-4.669-13.221c-1.91-1.602-4.13-2.404-6.657-2.404c-3.853,0-6.68,1.456-8.482,4.369
				c-1.802,2.912-2.704,6.526-2.704,10.84c0,4.654,0.916,8.375,2.75,11.165c1.833,2.789,4.614,4.183,8.344,4.183
				C84.879,61.031,87.716,59.645,89.656,56.871z"/>
			<path opacity="0.8" d="M150.365,21.188c3.514,1.574,6.419,4.059,8.708,7.454c2.062,2.993,3.4,6.466,4.013,10.417
				c0.356,2.314,0.5,5.648,0.435,10h-36.698c0.204,5.054,1.961,8.598,5.27,10.632c2.013,1.263,4.433,1.895,7.263,1.895
				c3.001,0,5.439-0.77,7.316-2.311c1.022-0.832,1.926-1.988,2.71-3.467h13.45c-0.353,2.99-1.982,6.025-4.883,9.107
				c-4.515,4.9-10.833,7.351-18.957,7.351c-6.706,0-12.622-2.067-17.75-6.2c-5.124-4.132-7.688-10.857-7.688-20.172
				c0-8.728,2.312-15.422,6.941-20.079c4.627-4.658,10.634-6.987,18.018-6.987C142.902,18.827,146.851,19.614,150.365,21.188z
				 M130.656,32.569c-1.86,1.919-3.03,4.519-3.508,7.799h22.697c-0.241-3.498-1.41-6.151-3.51-7.961
				c-2.1-1.811-4.704-2.717-7.812-2.717C135.138,29.689,132.518,30.65,130.656,32.569z"/>
			<path opacity="0.8" d="M180.4,54.467c0.279,2.343,0.882,4.007,1.812,4.993c1.639,1.756,4.675,2.635,9.103,2.635
				c2.602,0,4.669-0.385,6.2-1.156c1.534-0.77,2.299-1.926,2.299-3.468c0-1.479-0.617-2.604-1.852-3.374
				c-1.235-0.771-5.829-2.096-13.782-3.975c-5.727-1.418-9.761-3.19-12.102-5.316c-2.343-2.095-3.513-5.115-3.513-9.061
				c0-4.653,1.829-8.652,5.489-11.996c3.66-3.343,8.811-5.016,15.45-5.016c6.3,0,11.434,1.256,15.403,3.768
				c3.968,2.512,6.248,6.85,6.833,13.012h-13.173c-0.188-1.694-0.666-3.035-1.438-4.021c-1.453-1.787-3.926-2.681-7.417-2.681
				c-2.875,0-4.922,0.447-6.142,1.34c-1.221,0.895-1.832,1.942-1.832,3.144c0,1.51,0.649,2.604,1.948,3.282
				c1.298,0.709,5.882,1.926,13.754,3.652c5.25,1.233,9.184,3.098,11.803,5.593c2.59,2.527,3.883,5.686,3.883,9.477
				c0,4.992-1.86,9.068-5.582,12.227c-3.721,3.158-9.471,4.739-17.252,4.739c-7.937,0-13.796-1.672-17.579-5.016
				c-3.784-3.344-5.674-7.604-5.674-12.782H180.4z"/>
			<path opacity="0.8" d="M236.38,14.158h-13.359V2h13.359V14.158z M223.021,20.167h13.359v50.387h-13.359V20.167z"/>
			<path opacity="0.8" d="M274.065,20.121c3.201,1.325,5.785,3.76,7.756,7.304v-7.257h12.851v47.798
				c0,6.502-1.094,11.402-3.281,14.7c-3.759,5.669-10.972,8.506-21.634,8.506c-6.441,0-11.695-1.264-15.763-3.791
				c-4.069-2.527-6.317-6.303-6.749-11.326h14.33c0.369,1.54,0.971,2.649,1.804,3.328c1.417,1.202,3.806,1.802,7.165,1.802
				c4.746,0,7.919-1.587,9.523-4.761c1.047-2.034,1.57-5.455,1.57-10.263v-3.235c-1.264,2.157-2.621,3.775-4.066,4.854
				c-2.621,2.003-6.026,3.005-10.217,3.005c-6.472,0-11.642-2.273-15.509-6.819c-3.868-4.545-5.801-10.701-5.801-18.467
				c0-7.488,1.861-13.783,5.585-18.884c3.724-5.1,9.003-7.651,15.836-7.651C269.986,18.965,272.188,19.351,274.065,20.121z
				 M278.553,56.247c2.117-2.326,3.176-6.032,3.176-11.118c0-4.776-1.005-8.413-3.016-10.909c-2.01-2.497-4.702-3.745-8.078-3.745
				c-4.603,0-7.779,2.173-9.529,6.518c-0.922,2.312-1.381,5.163-1.381,8.552c0,2.928,0.491,5.531,1.473,7.812
				c1.781,4.253,4.971,6.379,9.576,6.379C273.842,59.737,276.435,58.574,278.553,56.247z"/>
			<path opacity="0.8" d="M347.599,23.056c3.299,2.728,4.95,7.251,4.95,13.568v33.93h-13.498V39.906c0-2.65-0.353-4.684-1.056-6.102
				c-1.286-2.588-3.733-3.883-7.343-3.883c-4.436,0-7.479,1.896-9.132,5.687c-0.856,2.004-1.285,4.561-1.285,7.673v27.274h-13.175
				V20.26h12.76v7.35c1.688-2.588,3.284-4.453,4.788-5.593c2.699-2.034,6.122-3.051,10.264-3.051
				C340.059,18.965,344.301,20.329,347.599,23.056z"/>
			<path opacity="0.8" d="M411.059,39.906c2.453-0.308,4.206-0.693,5.261-1.156c1.894-0.801,2.841-2.049,2.841-3.744
				c0-2.065-0.726-3.49-2.179-4.276c-1.452-0.786-3.584-1.179-6.396-1.179c-3.156,0-5.39,0.771-6.701,2.312
				c-0.938,1.141-1.562,2.682-1.874,4.623h-12.713c0.277-4.406,1.517-8.027,3.714-10.863c3.497-4.438,9.5-6.657,18.014-6.657
				c5.54,0,10.461,1.095,14.763,3.282c4.302,2.189,6.454,6.318,6.454,12.389V57.75c0,1.603,0.029,3.544,0.092,5.824
				c0.092,1.727,0.354,2.898,0.786,3.514c0.432,0.617,1.079,1.125,1.942,1.525v1.942h-14.332c-0.399-1.017-0.678-1.971-0.831-2.866
				c-0.155-0.893-0.277-1.91-0.371-3.05c-1.829,1.972-3.937,3.651-6.323,5.038c-2.853,1.633-6.076,2.451-9.672,2.451
				c-4.587,0-8.377-1.303-11.367-3.907c-2.992-2.604-4.489-6.294-4.489-11.071c0-6.194,2.406-10.678,7.218-13.452
				c2.639-1.509,6.521-2.588,11.643-3.235L411.059,39.906z M419.114,46.054c-0.843,0.524-1.694,0.948-2.555,1.271
				c-0.857,0.324-2.038,0.624-3.538,0.901l-2.998,0.555c-2.812,0.494-4.83,1.095-6.055,1.803c-2.076,1.202-3.113,3.066-3.113,5.593
				c0,2.25,0.634,3.876,1.9,4.877c1.268,1.001,2.808,1.502,4.624,1.502c2.88,0,5.531-0.833,7.957-2.497
				c2.424-1.664,3.685-4.699,3.778-9.106V46.054z"/>
			<path opacity="0.8" d="M484.384,23.056c3.298,2.728,4.949,7.251,4.949,13.568v33.93h-13.499V39.906
				c0-2.65-0.352-4.684-1.056-6.102c-1.285-2.588-3.732-3.883-7.342-3.883c-4.436,0-7.48,1.896-9.131,5.687
				c-0.857,2.004-1.286,4.561-1.286,7.673v27.274h-13.173V20.26h12.759v7.35c1.687-2.588,3.283-4.453,4.787-5.593
				c2.7-2.034,6.122-3.051,10.266-3.051C476.842,18.965,481.085,20.329,484.384,23.056z"/>
			<path opacity="0.8" d="M528.302,20.976c2.373,1.341,4.299,3.198,5.779,5.57V2.509h13.358v68.045h-12.805v-6.981
				c-1.881,2.99-4.021,5.164-6.425,6.519c-2.403,1.355-5.394,2.035-8.969,2.035c-5.886,0-10.84-2.382-14.861-7.143
				c-4.022-4.761-6.033-10.871-6.033-18.329c0-8.598,1.98-15.363,5.939-20.293c3.961-4.931,9.254-7.397,15.88-7.397
				C523.217,18.965,525.929,19.636,528.302,20.976z M531.538,56.871c1.942-2.773,2.913-6.363,2.913-10.771
				c0-6.164-1.557-10.57-4.67-13.221c-1.911-1.602-4.129-2.404-6.658-2.404c-3.852,0-6.678,1.456-8.48,4.369
				c-1.803,2.912-2.705,6.526-2.705,10.84c0,4.654,0.918,8.375,2.751,11.165c1.832,2.789,4.614,4.183,8.344,4.183
				C526.76,61.031,529.596,59.645,531.538,56.871z"/>
			<path opacity="0.8" d="M628.738,26.223c3.77,4.777,5.654,10.941,5.654,18.491c0,7.828-1.86,14.314-5.577,19.461
				s-8.906,7.72-15.564,7.72c-4.183,0-7.544-0.833-10.083-2.497c-1.519-0.985-3.16-2.711-4.926-5.178v6.333h-12.99V2.509h13.176
				v24.223c1.674-2.342,3.52-4.13,5.537-5.363c2.387-1.541,5.428-2.311,9.119-2.311C619.751,19.058,624.969,21.446,628.738,26.223z
				 M617.727,56.917c1.895-2.743,2.844-6.348,2.844-10.817c0-3.575-0.466-6.534-1.398-8.875c-1.771-4.438-5.035-6.657-9.789-6.657
				c-4.814,0-8.124,2.173-9.928,6.519c-0.933,2.311-1.398,5.301-1.398,8.968c0,4.315,0.965,7.889,2.891,10.724
				c1.927,2.836,4.864,4.253,8.811,4.253C613.175,61.031,615.832,59.661,617.727,56.917z"/>
			<path opacity="0.8" d="M656.674,20.167v30.371c0,2.866,0.337,5.023,1.012,6.472c1.196,2.559,3.541,3.837,7.038,3.837
				c4.476,0,7.542-1.818,9.198-5.455c0.858-1.972,1.289-4.576,1.289-7.812V20.167h13.359v50.387h-12.805v-7.119
				c-0.123,0.155-0.432,0.617-0.922,1.387c-0.493,0.771-1.076,1.449-1.751,2.035c-2.062,1.849-4.051,3.113-5.971,3.791
				c-1.921,0.677-4.172,1.017-6.753,1.017c-7.438,0-12.446-2.682-15.029-8.043c-1.442-2.959-2.165-7.319-2.165-13.083V20.167
				H656.674z"/>
			<path opacity="0.8" d="M714.918,14.158H701.56V2h13.358V14.158z M701.56,20.167h13.358v50.387H701.56V20.167z"/>
			<path opacity="0.8" d="M741.129,70.554h-13.175V2.417h13.175V70.554z"/>
			<path opacity="0.8" d="M780.699,20.976c2.373,1.341,4.299,3.198,5.778,5.57V2.509h13.359v68.045h-12.805v-6.981
				c-1.88,2.99-4.021,5.164-6.425,6.519c-2.405,1.355-5.395,2.035-8.968,2.035c-5.888,0-10.841-2.382-14.862-7.143
				c-4.021-4.761-6.033-10.871-6.033-18.329c0-8.598,1.98-15.363,5.941-20.293c3.959-4.931,9.252-7.397,15.879-7.397
				C775.614,18.965,778.325,19.636,780.699,20.976z M783.936,56.871c1.941-2.773,2.911-6.363,2.911-10.771
				c0-6.164-1.556-10.57-4.669-13.221c-1.91-1.602-4.129-2.404-6.655-2.404c-3.853,0-6.681,1.456-8.482,4.369
				c-1.804,2.912-2.705,6.526-2.705,10.84c0,4.654,0.917,8.375,2.75,11.165c1.833,2.789,4.616,4.183,8.345,4.183
				C779.157,61.031,781.994,59.645,783.936,56.871z"/>
			<path opacity="0.8" d="M861.873,20.167h13.36l7.673,36.288l7.858-36.288h13.729l-14.607,50.387h-13.544l-7.905-36.704
				l-7.996,36.704h-13.685l-14.145-50.387h14.145l7.858,36.148L861.873,20.167z"/>
			<path opacity="0.8" d="M944.585,21.188c3.517,1.574,6.417,4.059,8.708,7.454c2.064,2.993,3.402,6.466,4.015,10.417
				c0.355,2.314,0.499,5.648,0.434,10h-36.697c0.204,5.054,1.962,8.598,5.269,10.632c2.012,1.263,4.434,1.895,7.265,1.895
				c3.001,0,5.439-0.77,7.314-2.311c1.023-0.832,1.928-1.988,2.712-3.467h13.451c-0.356,2.99-1.984,6.025-4.886,9.107
				c-4.513,4.9-10.831,7.351-18.955,7.351c-6.706,0-12.622-2.067-17.749-6.2c-5.126-4.132-7.688-10.857-7.688-20.172
				c0-8.728,2.312-15.422,6.941-20.079c4.627-4.658,10.633-6.987,18.018-6.987C937.12,18.827,941.07,19.614,944.585,21.188z
				 M924.877,32.569c-1.861,1.919-3.031,4.519-3.51,7.799h22.697c-0.24-3.498-1.41-6.151-3.51-7.961
				c-2.101-1.811-4.705-2.717-7.812-2.717C929.359,29.689,926.737,30.65,924.877,32.569z"/>
			<path opacity="0.8" d="M1007.428,26.223c3.77,4.777,5.653,10.941,5.653,18.491c0,7.828-1.859,14.314-5.576,19.461
				s-8.905,7.72-15.565,7.72c-4.182,0-7.543-0.833-10.082-2.497c-1.52-0.985-3.16-2.711-4.926-5.178v6.333h-12.99V2.509h13.176
				v24.223c1.673-2.342,3.521-4.13,5.535-5.363c2.389-1.541,5.43-2.311,9.119-2.311C998.44,19.058,1003.658,21.446,1007.428,26.223z
				 M996.416,56.917c1.895-2.743,2.843-6.348,2.843-10.817c0-3.575-0.468-6.534-1.399-8.875c-1.77-4.438-5.032-6.657-9.787-6.657
				c-4.814,0-8.125,2.173-9.928,6.519c-0.932,2.311-1.398,5.301-1.398,8.968c0,4.315,0.963,7.889,2.891,10.724
				c1.926,2.836,4.861,4.253,8.809,4.253C991.864,61.031,994.521,59.661,996.416,56.917z"/>
			<path opacity="0.8" d="M1090.91,25.576c4.109,4.344,6.164,10.724,6.164,19.138c0,8.875-2.008,15.64-6.025,20.293
				c-4.018,4.654-9.188,6.98-15.516,6.98c-4.032,0-7.382-1.001-10.051-3.004c-1.456-1.109-2.884-2.727-4.28-4.854v26.257h-13.035
				V20.167h12.62v7.442c1.426-2.187,2.945-3.913,4.559-5.177c2.947-2.249,6.451-3.375,10.515-3.375
				C1081.784,19.058,1086.801,21.23,1090.91,25.576z M1080.799,35.052c-1.791-2.989-4.693-4.484-8.709-4.484
				c-4.827,0-8.144,2.266-9.947,6.796c-0.936,2.403-1.401,5.454-1.401,9.152c0,5.856,1.569,9.97,4.712,12.344
				c1.869,1.386,4.079,2.08,6.634,2.08c3.705,0,6.531-1.417,8.479-4.253c1.945-2.835,2.919-6.611,2.919-11.326
				C1083.484,41.478,1082.588,38.042,1080.799,35.052z"/>
			<path opacity="0.8" d="M1134.355,18.988c0.17,0.016,0.547,0.04,1.133,0.069v13.498c-0.832-0.092-1.571-0.154-2.219-0.185
				s-1.172-0.046-1.571-0.046c-5.302,0-8.86,1.727-10.679,5.178c-1.018,1.941-1.525,4.931-1.525,8.968v24.084h-13.268V20.167h12.574
				v8.783c2.033-3.358,3.805-5.655,5.315-6.888c2.466-2.064,5.669-3.097,9.615-3.097
				C1133.979,18.965,1134.186,18.973,1134.355,18.988z"/>
			<path opacity="0.8" d="M1185.229,64.39c-4.252,5.25-10.709,7.875-19.369,7.875c-8.659,0-15.116-2.625-19.368-7.875
				c-4.254-5.25-6.379-11.57-6.379-18.96c0-7.266,2.125-13.564,6.379-18.891c4.252-5.327,10.709-7.99,19.368-7.99
				c8.66,0,15.117,2.664,19.369,7.99c4.253,5.327,6.381,11.625,6.381,18.891C1191.609,52.82,1189.481,59.141,1185.229,64.39z
				 M1174.689,57.109c2.064-2.739,3.098-6.632,3.098-11.679s-1.033-8.932-3.098-11.655c-2.064-2.723-5.023-4.086-8.875-4.086
				c-3.853,0-6.819,1.363-8.899,4.086c-2.079,2.723-3.12,6.608-3.12,11.655s1.041,8.94,3.12,11.679
				c2.08,2.739,5.047,4.107,8.899,4.107C1169.666,61.216,1172.625,59.848,1174.689,57.109z"/>
			<path opacity="0.8" d="M1195.306,80.215c0.74,0.062,1.265,0.1,1.572,0.116c0.308,0.015,0.584,0.023,0.833,0.023
				c1.293,0,2.271-0.317,2.935-0.948c0.662-0.632,0.993-1.857,0.993-3.674V20.398h13.176v55.564c0,5.085-1.003,8.844-3.007,11.279
				c-2.003,2.434-5.931,3.651-11.786,3.651c-0.401,0-0.995-0.015-1.78-0.046c-0.786-0.032-1.765-0.062-2.936-0.093V80.215z
				 M1214.814,14.158h-13.176V2h13.176V14.158z"/>
			<path opacity="0.8" d="M1260.173,21.188c3.517,1.574,6.419,4.059,8.709,7.454c2.063,2.993,3.401,6.466,4.015,10.417
				c0.354,2.314,0.499,5.648,0.434,10h-36.698c0.204,5.054,1.962,8.598,5.269,10.632c2.012,1.263,4.434,1.895,7.266,1.895
				c3,0,5.439-0.77,7.313-2.311c1.024-0.832,1.929-1.988,2.713-3.467h13.45c-0.355,2.99-1.983,6.025-4.885,9.107
				c-4.514,4.9-10.832,7.351-18.955,7.351c-6.707,0-12.623-2.067-17.748-6.2c-5.128-4.132-7.689-10.857-7.689-20.172
				c0-8.728,2.312-15.422,6.94-20.079c4.627-4.658,10.634-6.987,18.019-6.987C1252.709,18.827,1256.658,19.614,1260.173,21.188z
				 M1240.465,32.569c-1.861,1.919-3.031,4.519-3.51,7.799h22.697c-0.24-3.498-1.409-6.151-3.509-7.961
				c-2.101-1.811-4.705-2.717-7.813-2.717C1244.948,29.689,1242.326,30.65,1240.465,32.569z"/>
			<path opacity="0.8" d="M1310.132,38.242c-0.245-1.88-0.88-3.575-1.899-5.085c-1.482-2.034-3.784-3.052-6.904-3.052
				c-4.45,0-7.492,2.205-9.129,6.611c-0.865,2.336-1.299,5.441-1.299,9.314c0,3.689,0.434,6.656,1.299,8.899
				c1.574,4.192,4.541,6.287,8.896,6.287c3.09,0,5.282-0.832,6.582-2.496c1.295-1.664,2.084-3.821,2.362-6.472h13.451
				c-0.31,4.007-1.759,7.797-4.349,11.373c-4.136,5.763-10.258,8.645-18.37,8.645c-8.114,0-14.083-2.404-17.907-7.212
				c-3.827-4.808-5.738-11.041-5.738-18.7c0-8.643,2.113-15.369,6.339-20.177c4.226-4.808,10.056-7.211,17.491-7.211
				c6.323,0,11.499,1.418,15.524,4.253c4.025,2.836,6.407,7.844,7.147,15.024H1310.132z"/>
			<path opacity="0.8" d="M1327.468,30.013V20.63h7.026V6.577h13.036V20.63h8.182v9.383h-8.182V56.64
				c0,2.066,0.261,3.352,0.786,3.86c0.523,0.509,2.126,0.762,4.807,0.762c0.4,0,0.824-0.007,1.271-0.022
				c0.446-0.015,0.887-0.039,1.318-0.069v9.846l-6.241,0.231c-6.225,0.215-10.477-0.863-12.758-3.235
				c-1.479-1.51-2.219-3.837-2.219-6.981V30.013H1327.468z"/>
			<path opacity="0.8" d="M1374.388,54.467c0.278,2.343,0.882,4.007,1.812,4.993c1.642,1.756,4.676,2.635,9.104,2.635
				c2.602,0,4.669-0.385,6.202-1.156c1.532-0.77,2.298-1.926,2.298-3.468c0-1.479-0.617-2.604-1.852-3.374
				c-1.236-0.771-5.83-2.096-13.784-3.975c-5.725-1.418-9.759-3.19-12.1-5.316c-2.343-2.095-3.514-5.115-3.514-9.061
				c0-4.653,1.829-8.652,5.489-11.996c3.66-3.343,8.811-5.016,15.45-5.016c6.3,0,11.435,1.256,15.403,3.768
				c3.968,2.512,6.246,6.85,6.833,13.012h-13.175c-0.186-1.694-0.664-3.035-1.437-4.021c-1.452-1.787-3.926-2.681-7.417-2.681
				c-2.873,0-4.922,0.447-6.142,1.34c-1.22,0.895-1.832,1.942-1.832,3.144c0,1.51,0.648,2.604,1.948,3.282
				c1.297,0.709,5.883,1.926,13.756,3.652c5.248,1.233,9.183,3.098,11.802,5.593c2.588,2.527,3.883,5.686,3.883,9.477
				c0,4.992-1.86,9.068-5.583,12.227c-3.721,3.158-9.472,4.739-17.253,4.739c-7.936,0-13.794-1.672-17.578-5.016
				c-3.783-3.344-5.673-7.604-5.673-12.782H1374.388z"/>
			<path opacity="0.8" d="M49.118,177.996c-4.254,5.25-10.709,7.875-19.37,7.875c-8.661,0-15.116-2.625-19.37-7.875
				C6.126,172.747,4,166.427,4,159.036c0-7.266,2.126-13.563,6.378-18.89c4.253-5.327,10.709-7.991,19.37-7.991
				c8.66,0,15.116,2.664,19.37,7.991c4.252,5.326,6.378,11.624,6.378,18.89C55.496,166.427,53.37,172.747,49.118,177.996z
				 M38.578,170.714c2.064-2.738,3.097-6.63,3.097-11.678c0-5.047-1.033-8.933-3.097-11.654c-2.065-2.724-5.024-4.085-8.876-4.085
				c-3.853,0-6.818,1.361-8.899,4.085c-2.08,2.722-3.121,6.607-3.121,11.654c0,5.048,1.041,8.939,3.121,11.678
				c2.081,2.74,5.046,4.109,8.899,4.109C33.554,174.823,36.513,173.454,38.578,170.714z"/>
			<path opacity="0.8" d="M85.775,115.397c0.676,0.047,1.601,0.116,2.773,0.209v10.725c-0.74-0.093-1.98-0.163-3.722-0.208
				c-1.741-0.045-2.943,0.339-3.604,1.156c-0.664,0.816-0.995,1.718-0.995,2.704c0,0.985,0,2.402,0,4.251h8.645v9.293h-8.645v40.634
				H67.146v-40.634h-7.397v-9.293h7.212v-3.233c0-5.393,0.908-9.108,2.727-11.141c1.91-3.021,6.518-4.531,13.822-4.531
				C84.343,115.329,85.097,115.353,85.775,115.397z"/>
			<path opacity="0.8" d="M142.712,153.513c2.453-0.309,4.206-0.694,5.261-1.156c1.895-0.8,2.841-2.049,2.841-3.743
				c0-2.064-0.726-3.491-2.179-4.277c-1.452-0.785-3.584-1.179-6.396-1.179c-3.155,0-5.389,0.771-6.701,2.312
				c-0.938,1.141-1.561,2.68-1.874,4.622h-12.713c0.277-4.406,1.517-8.029,3.714-10.863c3.497-4.438,9.5-6.657,18.014-6.657
				c5.54,0,10.461,1.095,14.763,3.282c4.302,2.189,6.454,6.317,6.454,12.389v23.114c0,1.602,0.029,3.543,0.092,5.823
				c0.091,1.727,0.354,2.898,0.786,3.515c0.432,0.615,1.079,1.124,1.942,1.525v1.941h-14.332c-0.399-1.017-0.678-1.973-0.831-2.866
				c-0.154-0.894-0.277-1.911-0.37-3.05c-1.829,1.971-3.938,3.651-6.323,5.036c-2.852,1.634-6.076,2.45-9.672,2.45
				c-4.587,0-8.377-1.302-11.367-3.905c-2.992-2.604-4.489-6.294-4.489-11.071c0-6.194,2.406-10.679,7.218-13.452
				c2.639-1.509,6.521-2.588,11.643-3.235L142.712,153.513z M150.768,159.661c-0.843,0.524-1.694,0.947-2.555,1.271
				c-0.857,0.323-2.037,0.624-3.538,0.901l-2.998,0.554c-2.812,0.492-4.83,1.094-6.055,1.803c-2.076,1.201-3.113,3.067-3.113,5.594
				c0,2.25,0.634,3.875,1.9,4.876c1.268,1.003,2.808,1.503,4.624,1.503c2.88,0,5.531-0.832,7.957-2.496
				c2.425-1.663,3.685-4.7,3.778-9.106V159.661z"/>
			<path opacity="0.8" d="M188.859,184.161h-13.173v-68.14h13.173V184.161z"/>
			<path opacity="0.8" d="M215.163,184.161h-13.175v-68.14h13.175V184.161z"/>
			<g opacity="0.8">
				<path stroke="#000000" stroke-miterlimit="10" d="M282.052,123.512c0,2.032,0.593,3.852,1.78,5.453
					c1.185,1.604,2.757,3.091,4.714,4.462s4.176,2.675,6.658,3.905c2.479,1.234,5.022,2.506,7.627,3.815
					c2.604,1.309,5.146,2.712,7.626,4.205c2.482,1.496,4.7,3.184,6.658,5.063c1.956,1.879,3.528,4.005,4.714,6.378
					c1.186,2.374,1.78,5.086,1.78,8.137c0,2.774-0.449,5.323-1.341,7.649c-0.894,2.328-2.12,4.416-3.675,6.265
					c-1.557,1.85-3.397,3.483-5.524,4.9c-2.126,1.417-4.424,2.588-6.889,3.513c-2.465,0.925-5.054,1.626-7.766,2.104
					c-2.713,0.476-5.439,0.715-8.181,0.715c-3.853,0-7.598-0.471-11.234-1.41c-3.637-0.939-6.871-2.357-9.708-4.252
					s-5.108-4.269-6.817-7.118c-1.712-2.851-2.566-6.188-2.566-10.01c0-1.972,0.314-3.703,0.948-5.2
					c0.63-1.494,1.417-2.74,2.356-3.744c0.94-1,1.965-1.756,3.074-2.265c1.11-0.509,2.142-0.763,3.097-0.763
					c0.986,0,1.811,0.27,2.474,0.808c0.662,0.539,0.994,1.38,0.994,2.52c0,0.525-0.061,1.079-0.184,1.666
					c-0.125,0.584-0.255,1.225-0.394,1.917c-0.14,0.693-0.271,1.457-0.394,2.288c-0.123,0.832-0.184,1.741-0.184,2.727
					c0,2.158,0.493,4.021,1.479,5.594s2.295,2.867,3.929,3.884c1.633,1.017,3.514,1.771,5.64,2.265c2.126,0.494,4.33,0.74,6.61,0.74
					c2.682,0,5.362-0.323,8.044-0.971c2.681-0.647,5.084-1.602,7.21-2.866c2.126-1.264,3.853-2.812,5.178-4.646
					c1.324-1.832,1.987-3.936,1.987-6.309c0-2.188-0.593-4.145-1.779-5.871c-1.187-1.727-2.759-3.321-4.716-4.785
					c-1.957-1.463-4.183-2.843-6.678-4.136c-2.497-1.295-5.04-2.604-7.629-3.93c-2.587-1.325-5.13-2.72-7.626-4.185
					c-2.497-1.464-4.724-3.073-6.679-4.83c-1.958-1.758-3.531-3.721-4.716-5.893c-1.187-2.173-1.778-4.646-1.778-7.42
					c0-2.59,0.624-5.139,1.872-7.652c1.247-2.511,3.126-4.761,5.639-6.748c2.511-1.988,5.646-3.598,9.407-4.831
					c3.759-1.232,8.166-1.849,13.22-1.849c3.205,0,6.34,0.479,9.409,1.434c3.065,0.954,5.801,2.311,8.204,4.067
					c2.403,1.757,4.336,3.853,5.8,6.286c1.464,2.436,2.196,5.131,2.196,8.091c0,1.757-0.3,3.559-0.901,5.408
					c-0.601,1.848-1.563,3.776-2.889,5.778c-1.295,1.94-2.705,3.382-4.23,4.322s-2.905,1.41-4.137,1.41
					c-0.924,0-1.68-0.271-2.264-0.81c-0.587-0.538-0.878-1.349-0.878-2.428c0-0.799,0.184-1.747,0.554-2.843
					c0.371-1.093,1-2.348,1.896-3.766c0.832-1.356,1.447-2.628,1.849-3.815c0.399-1.186,0.601-2.288,0.601-3.304
					c0-1.572-0.424-2.952-1.272-4.14c-0.848-1.185-2.018-2.179-3.514-2.98c-1.493-0.802-3.29-1.402-5.384-1.802
					c-2.097-0.401-4.392-0.601-6.889-0.601c-2.773,0-5.185,0.315-7.234,0.946c-2.049,0.631-3.761,1.449-5.132,2.451
					c-1.37,1.001-2.388,2.117-3.05,3.352C282.385,121.093,282.052,122.31,282.052,123.512z"/>
				<path stroke="#000000" stroke-miterlimit="10" d="M348.389,155.408c1.263-1.665,2.682-3.453,4.253-5.362
					c1.571-1.911,3.204-3.689,4.9-5.341c1.694-1.647,3.38-3.018,5.062-4.113c1.679-1.093,3.259-1.641,4.738-1.641
					c0.37,0,0.786,0.069,1.249,0.206c0.462,0.141,0.901,0.395,1.318,0.765c0.415,0.369,0.761,0.887,1.038,1.55
					c0.278,0.661,0.417,1.516,0.417,2.563c0,2.096-0.293,4.138-0.878,6.127c-0.586,1.985-1.225,3.975-1.919,5.961
					c-0.694,1.988-1.325,4.016-1.895,6.08c-0.57,2.065-0.854,4.222-0.854,6.472c0,1.233,0.185,2.219,0.554,2.959
					c0.37,0.74,0.849,1.108,1.434,1.108c0.739,0,1.525-0.152,2.358-0.462c0.831-0.308,1.664-0.708,2.496-1.201
					c0.832-0.493,1.648-1.056,2.45-1.688c0.801-0.63,1.555-1.287,2.265-1.963c1.694-1.572,3.358-3.36,4.992-5.364l0.788,12.297
					c-0.555,0.432-1.257,0.971-2.103,1.618c-0.849,0.647-1.788,1.333-2.82,2.056c-1.034,0.727-2.149,1.457-3.352,2.196
					c-1.203,0.741-2.412,1.396-3.629,1.966s-2.436,1.04-3.653,1.408c-1.216,0.37-2.38,0.557-3.49,0.557
					c-1.696,0-3.166-0.454-4.414-1.363c-1.249-0.911-2.273-2.065-3.074-3.469c-0.802-1.401-1.403-2.934-1.804-4.599
					c-0.401-1.664-0.601-3.236-0.601-4.716c0-0.986,0.131-2.087,0.392-3.305c0.263-1.217,0.587-2.441,0.971-3.675
					c0.385-1.232,0.817-2.435,1.295-3.606c0.479-1.171,0.925-2.219,1.34-3.142c0.416-0.925,0.777-1.681,1.086-2.267
					c0.308-0.585,0.509-0.925,0.601-1.017l-0.971-0.139c-0.524,0.339-1.409,1.202-2.657,2.589c-1.249,1.386-2.659,3.137-4.23,5.246
					c-1.571,2.112-3.198,4.484-4.876,7.119c-1.682,2.636-3.198,5.354-4.554,8.159c-0.678,1.387-1.232,2.596-1.664,3.628
					c-0.432,1.034-0.855,1.881-1.27,2.544c-0.417,0.661-0.872,1.163-1.365,1.501c-0.493,0.34-1.125,0.51-1.896,0.51
					c-1.016,0-1.818-0.294-2.403-0.88c-0.586-0.583-1.033-1.362-1.342-2.333c-0.308-0.972-0.507-2.074-0.601-3.306
					c-0.092-1.232-0.137-2.496-0.137-3.791c0-2.063,0.023-4.769,0.069-8.112c0.045-3.343,0.192-7.05,0.438-11.118
					s0.601-8.35,1.065-12.851c0.46-4.499,1.115-8.944,1.963-13.336c0.848-4.393,1.91-8.584,3.19-12.572
					c1.277-3.992,2.835-7.506,4.669-10.542c1.833-3.035,3.982-5.447,6.448-7.235c2.464-1.787,5.299-2.681,8.506-2.681
					c1.664,0,3.027,0.248,4.09,0.74c1.064,0.493,1.91,1.186,2.542,2.08c0.63,0.894,1.07,1.965,1.318,3.213
					c0.245,1.249,0.37,2.643,0.37,4.183c0,2.281-0.324,4.808-0.971,7.58c-0.646,2.774-1.502,5.656-2.565,8.646
					c-1.065,2.99-2.273,6.017-3.628,9.084c-1.358,3.066-2.745,6.04-4.162,8.922c-1.417,2.881-2.812,5.601-4.182,8.158
					c-1.374,2.56-2.583,4.808-3.629,6.75L348.389,155.408z M352.502,126.839c1.818-4.715,3.135-8.691,3.952-11.925
					c0.816-3.236,1.225-5.625,1.225-7.166c0-2.343-0.308-3.513-0.925-3.513c-0.8,0-1.985,1.31-3.558,3.929
					c-1.572,2.619-3.421,6.425-5.547,11.419c-0.525,1.694-1.011,3.45-1.457,5.269c-0.448,1.818-0.847,3.629-1.202,5.432
					s-0.678,3.575-0.971,5.317c-0.293,1.74-0.547,3.397-0.763,4.97c-0.525,3.666-0.925,7.256-1.202,10.771
					c0.832-1.942,1.741-4.053,2.727-6.336c0.986-2.278,1.958-4.536,2.914-6.771c0.954-2.235,1.855-4.347,2.704-6.333
					C351.247,129.913,351.948,128.227,352.502,126.839z"/>
				<path stroke="#000000" stroke-miterlimit="10" d="M428.175,172.834c-0.708,0.987-1.656,2.144-2.843,3.469
					c-1.187,1.324-2.52,2.588-3.999,3.79c-1.479,1.202-3.066,2.219-4.761,3.052c-1.696,0.83-3.391,1.247-5.085,1.247
					c-2.034,0-3.73-0.655-5.085-1.966c-1.356-1.309-2.527-3.211-3.513-5.708c-0.741,0.863-1.649,1.743-2.727,2.635
					c-1.079,0.895-2.259,1.703-3.537,2.426c-1.279,0.726-2.612,1.318-3.999,1.781c-1.387,0.462-2.773,0.692-4.16,0.692
					c-1.479,0-2.921-0.3-4.322-0.901c-1.402-0.601-2.643-1.464-3.72-2.588c-1.079-1.125-1.942-2.496-2.59-4.113
					c-0.647-1.619-0.971-3.445-0.971-5.479c0-2.312,0.324-4.685,0.971-7.117c0.647-2.436,1.54-4.816,2.68-7.143
					c1.14-2.328,2.489-4.524,4.045-6.59c1.558-2.063,3.261-3.866,5.109-5.407c1.85-1.541,3.797-2.767,5.848-3.675
					c2.048-0.908,4.136-1.363,6.263-1.363c0.709,0,1.263,0.138,1.664,0.415c0.399,0.279,0.732,0.593,0.994,0.948
					c0.261,0.354,0.517,0.701,0.763,1.039c0.247,0.341,0.554,0.587,0.925,0.741c0.369,0.155,0.747,0.254,1.133,0.3
					c0.385,0.047,0.777,0.068,1.178,0.068c0.338,0,0.685-0.007,1.04-0.021c0.354-0.016,0.701-0.023,1.04-0.023
					c0.463,0,0.894,0.045,1.295,0.138c0.399,0.093,0.755,0.294,1.063,0.6c0.308,0.311,0.547,0.742,0.716,1.296
					c0.169,0.554,0.255,1.311,0.255,2.266c0,1.479-0.155,3.121-0.462,4.923c-0.31,1.803-0.647,3.651-1.018,5.547
					c-0.371,1.896-0.708,3.791-1.017,5.687c-0.308,1.894-0.462,3.691-0.462,5.385c0,1.449,0.131,2.582,0.394,3.397
					c0.259,0.817,0.822,1.226,1.686,1.226c0.647,0,1.326-0.161,2.036-0.485c0.707-0.322,1.423-0.747,2.149-1.271
					c0.723-0.525,1.446-1.117,2.172-1.781c0.723-0.661,1.409-1.348,2.057-2.057c1.509-1.664,3.036-3.544,4.576-5.639
					L428.175,172.834z M388.698,169.183c0,0.771,0.053,1.518,0.161,2.243c0.108,0.723,0.3,1.37,0.579,1.941
					c0.277,0.569,0.646,1.032,1.11,1.386c0.46,0.355,1.047,0.531,1.755,0.531c1.141,0,2.173-0.492,3.097-1.479
					c0.925-0.986,1.727-2.172,2.403-3.56c0.68-1.387,1.225-2.818,1.642-4.299c0.417-1.479,0.685-2.711,0.81-3.698l2.818-13.59
					c-1.263,0-2.496,0.315-3.698,0.946c-1.201,0.633-2.333,1.486-3.397,2.565c-1.062,1.079-2.042,2.312-2.934,3.698
					c-0.896,1.389-1.666,2.844-2.313,4.369c-0.647,1.524-1.148,3.06-1.502,4.6C388.875,166.379,388.698,167.826,388.698,169.183z"/>
				<path stroke="#000000" stroke-miterlimit="10" d="M441.581,175.932c3.113,0,5.948-0.307,8.506-0.924
					c2.558-0.616,4.876-1.448,6.957-2.497c2.081-1.047,3.959-2.272,5.639-3.675c1.68-1.401,3.197-2.905,4.554-4.506l0.509,10.585
					c-0.987,1.202-2.182,2.365-3.585,3.489c-1.401,1.126-2.934,2.112-4.599,2.959c-1.663,0.847-3.413,1.525-5.247,2.034
					c-1.833,0.508-3.644,0.764-5.431,0.764c-0.216,0-0.485-0.031-0.809-0.092c-0.324-0.062-0.887-0.17-1.688-0.324
					c-0.802-0.155-1.95-0.361-3.444-0.625c-1.495-0.263-3.521-0.577-6.078-0.947v0.831c0,5.608-0.471,10.702-1.412,15.279
					c-0.939,4.576-2.194,8.481-3.766,11.718c-1.571,3.234-3.375,5.731-5.409,7.488c-2.033,1.758-4.144,2.635-6.333,2.635
					c-1.757,0-3.22-0.432-4.391-1.295c-1.172-0.863-2.104-2.025-2.797-3.488c-0.694-1.465-1.187-3.175-1.479-5.132
					c-0.294-1.958-0.44-4.028-0.44-6.218c0-1.263,0.201-2.688,0.601-4.276c0.401-1.586,0.94-3.251,1.619-4.992
					c0.678-1.741,1.44-3.512,2.288-5.315s1.718-3.553,2.612-5.246c2.096-3.945,4.484-8.014,7.166-12.205
					c0.338-2.403,0.685-4.868,1.04-7.396c0.354-2.525,0.8-4.978,1.34-7.351s1.218-4.621,2.034-6.748
					c0.815-2.127,1.865-3.976,3.143-5.548c1.28-1.571,2.812-2.819,4.601-3.743c1.786-0.925,3.944-1.389,6.471-1.389
					c1.88,0,3.636,0.255,5.27,0.765c1.632,0.507,3.067,1.333,4.299,2.473c1.232,1.141,2.204,2.61,2.912,4.414
					c0.709,1.802,1.063,4.015,1.063,6.634c0,2.097-0.308,4.121-0.925,6.078c-0.617,1.958-1.579,3.83-2.889,5.617
					s-2.975,3.46-4.993,5.016c-2.018,1.556-4.414,2.952-7.188,4.183L441.581,175.932z M419.669,204.547
					c0,0.246,0.054,0.646,0.162,1.202c0.108,0.555,0.284,1.108,0.531,1.663c0.248,0.555,0.57,1.047,0.971,1.479
					c0.4,0.431,0.894,0.646,1.479,0.646c0.525,0,0.957-0.284,1.295-0.855c0.338-0.569,0.615-1.332,0.833-2.287
					c0.214-0.955,0.369-2.034,0.462-3.235c0.092-1.202,0.169-2.436,0.23-3.699c0.062-1.264,0.1-2.495,0.117-3.697
					c0.015-1.202,0.053-2.28,0.115-3.236c0.092-1.663,0.162-3.075,0.208-4.23c0.046-1.154,0.085-2.118,0.114-2.888
					c0.032-0.863,0.062-1.589,0.093-2.173c-0.586,1.016-1.154,2.196-1.71,3.536c-0.554,1.342-1.079,2.735-1.57,4.183
					c-0.495,1.448-0.942,2.897-1.342,4.347c-0.401,1.448-0.747,2.795-1.04,4.043c-0.293,1.249-0.525,2.328-0.692,3.237
					C419.754,203.49,419.669,204.146,419.669,204.547z M435.755,171.262c1.85-0.923,3.444-1.956,4.787-3.097
					c1.34-1.139,2.496-2.356,3.467-3.651c0.97-1.295,1.763-2.634,2.38-4.022c0.615-1.385,1.108-2.802,1.479-4.251
					c0.154-0.678,0.254-1.473,0.3-2.381c0.047-0.909-0.046-1.764-0.277-2.565c-0.23-0.803-0.633-1.487-1.202-2.059
					c-0.572-0.569-1.365-0.854-2.379-0.854c-1.142,0-2.144,0.315-3.006,0.945c-0.863,0.634-1.611,1.487-2.241,2.566
					c-0.633,1.079-1.156,2.359-1.572,3.837c-0.417,1.479-0.755,3.067-1.018,4.761c-0.263,1.696-0.446,3.461-0.554,5.294
					C435.811,167.62,435.755,169.445,435.755,171.262z"/>
				<path stroke="#000000" stroke-miterlimit="10" d="M477.822,184.161c-2.897,0-5.432-0.523-7.604-1.572
					c-2.172-1.048-3.982-2.458-5.432-4.23c-1.448-1.771-2.535-3.821-3.257-6.148c-0.727-2.326-1.088-4.769-1.088-7.326
					c0-1.727,0.169-3.553,0.51-5.478c0.338-1.926,0.854-3.813,1.547-5.663s1.564-3.613,2.612-5.293
					c1.047-1.68,2.272-3.158,3.675-4.438s2.975-2.295,4.716-3.051s3.675-1.133,5.801-1.133c1.727,0,3.329,0.276,4.808,0.832
					c1.48,0.555,2.766,1.333,3.86,2.335c1.093,1.001,1.948,2.211,2.566,3.628c0.615,1.418,0.924,3.004,0.924,4.763
					c0,1.91-0.471,3.821-1.412,5.73c-0.939,1.912-2.24,3.714-3.905,5.409c-1.665,1.695-3.646,3.206-5.941,4.531
					c-2.295,1.323-4.783,2.356-7.464,3.097c0.462,0.831,0.917,1.525,1.363,2.079c0.446,0.555,0.901,0.987,1.363,1.295
					c0.462,0.31,0.948,0.525,1.457,0.647c0.507,0.123,1.056,0.185,1.641,0.185c1.849,0,3.798-0.369,5.849-1.109
					c2.048-0.74,4.044-1.665,5.984-2.773c1.943-1.109,3.776-2.317,5.502-3.629c1.725-1.31,3.189-2.551,4.391-3.72l5.964,6.192
					c-2.713,2.804-5.594,5.286-8.645,7.442c-1.326,0.925-2.75,1.834-4.275,2.728s-3.129,1.688-4.81,2.382
					c-1.68,0.693-3.419,1.247-5.223,1.663C481.497,183.952,479.671,184.161,477.822,184.161z M471.674,162.435
					c1.109,0,2.319-0.286,3.629-0.854c1.309-0.572,2.526-1.304,3.651-2.196c1.125-0.894,2.073-1.865,2.843-2.914
					c0.77-1.046,1.155-2.062,1.155-3.05c0-1.387-0.253-2.526-0.761-3.421c-0.51-0.894-1.133-1.34-1.873-1.34
					c-1.325,0-2.458,0.246-3.397,0.739c-0.94,0.491-1.727,1.132-2.358,1.919c-0.631,0.784-1.141,1.679-1.525,2.68
					c-0.387,1.003-0.678,2.013-0.88,3.028c-0.199,1.017-0.329,2.004-0.392,2.959C471.704,160.939,471.674,161.756,471.674,162.435z"
					/>
				<path stroke="#000000" stroke-miterlimit="10" d="M497.1,166.41c1.724-1.479,3.126-2.713,4.205-3.699
					c1.079-0.985,2.004-1.887,2.774-2.703c0.771-0.816,1.471-1.642,2.103-2.474c0.633-0.832,1.379-1.818,2.242-2.959
					c0.863-1.14,1.911-2.535,3.145-4.183c1.231-1.647,2.835-3.706,4.806-6.172c0.401-0.554,0.85-1.094,1.343-1.618
					c0.492-0.523,1.039-0.994,1.641-1.408c0.6-0.418,1.264-0.756,1.987-1.018c0.723-0.264,1.534-0.395,2.426-0.395
					c1.48,0,2.619,0.163,3.421,0.487c0.803,0.322,1.389,0.714,1.758,1.179c0.369,0.46,0.585,0.946,0.646,1.455
					c0.062,0.508,0.093,0.947,0.093,1.317c0,0.739-0.293,1.557-0.878,2.45c-0.587,0.894-1.234,1.756-1.941,2.588
					c-0.709,0.833-1.38,1.596-2.011,2.288c-0.633,0.694-0.994,1.21-1.088,1.549c0,0.956,0.07,1.825,0.209,2.613
					c0.139,0.784,0.324,1.555,0.555,2.31c0.231,0.756,0.471,1.558,0.717,2.404c0.246,0.849,0.485,1.826,0.716,2.936
					s0.417,2.389,0.554,3.837c0.141,1.448,0.211,3.16,0.211,5.132c1.107-0.741,2.303-1.41,3.581-2.012s2.612-1.226,3.998-1.871
					c1.387-0.648,2.812-1.364,4.276-2.151c1.464-0.784,2.937-1.732,4.415-2.843l0.047,10.355c-1.912,1.479-4.122,2.867-6.635,4.16
					c-2.512,1.294-5.146,2.436-7.903,3.421c-2.76,0.987-5.547,1.765-8.368,2.334c-2.82,0.569-5.494,0.855-8.02,0.855
					c-1.82,0-3.515-0.17-5.085-0.507c-1.572-0.339-2.952-0.873-4.137-1.596c-1.188-0.724-2.15-1.672-2.891-2.844
					c-0.739-1.169-1.187-2.589-1.34-4.252c-0.432,0.093-0.856,0.154-1.271,0.183c-0.417,0.033-0.825,0.048-1.226,0.048
					c-0.493,0-0.955-0.015-1.387-0.048c-0.432-0.028-0.802-0.145-1.108-0.346c-0.31-0.199-0.556-0.522-0.741-0.97
					c-0.184-0.446-0.277-1.087-0.277-1.918c0-0.741,0.186-1.426,0.554-2.059c0.37-0.631,0.802-1.193,1.295-1.687
					c0.493-0.493,0.986-0.925,1.479-1.295S496.852,166.626,497.1,166.41z M503.017,172.327c0.368,0,0.776,0.229,1.224,0.692
					c0.446,0.462,0.963,0.972,1.549,1.526c0.585,0.555,1.265,1.062,2.034,1.525c0.771,0.461,1.648,0.692,2.634,0.692
					c1.203,0,2.196-0.199,2.984-0.601c0.784-0.4,1.408-0.932,1.871-1.596c0.462-0.661,0.785-1.433,0.97-2.311
					c0.187-0.878,0.277-1.795,0.277-2.75c0-0.832-0.053-1.681-0.161-2.544c-0.107-0.861-0.247-1.686-0.416-2.473
					c-0.171-0.785-0.354-1.525-0.555-2.218c-0.201-0.692-0.377-1.288-0.531-1.781L503.017,172.327z"/>
			</g>
			<path opacity="0.8" d="M585.054,153.513c2.453-0.309,4.206-0.694,5.264-1.156c1.895-0.8,2.841-2.049,2.841-3.743
				c0-2.064-0.728-3.491-2.18-4.277c-1.453-0.785-3.585-1.179-6.396-1.179c-3.154,0-5.389,0.771-6.699,2.312
				c-0.938,1.141-1.563,2.68-1.875,4.622h-12.713c0.277-4.406,1.517-8.029,3.716-10.863c3.497-4.438,9.5-6.657,18.012-6.657
				c5.542,0,10.462,1.095,14.765,3.282c4.302,2.189,6.453,6.317,6.453,12.389v23.114c0,1.602,0.03,3.543,0.093,5.823
				c0.092,1.727,0.353,2.898,0.784,3.515c0.432,0.615,1.079,1.124,1.942,1.525v1.941h-14.331c-0.399-1.017-0.677-1.973-0.831-2.866
				s-0.277-1.911-0.37-3.05c-1.829,1.971-3.938,3.651-6.323,5.036c-2.853,1.634-6.075,2.45-9.671,2.45
				c-4.588,0-8.378-1.302-11.369-3.905c-2.992-2.604-4.486-6.294-4.486-11.071c0-6.194,2.404-10.679,7.217-13.452
				c2.64-1.509,6.521-2.588,11.643-3.235L585.054,153.513z M593.109,159.661c-0.842,0.524-1.694,0.947-2.553,1.271
				c-0.859,0.323-2.037,0.624-3.538,0.901l-2.999,0.554c-2.811,0.492-4.83,1.094-6.055,1.803c-2.075,1.201-3.112,3.067-3.112,5.594
				c0,2.25,0.633,3.875,1.9,4.876c1.267,1.003,2.809,1.503,4.624,1.503c2.878,0,5.529-0.832,7.955-2.496
				c2.426-1.663,3.685-4.7,3.777-9.106V159.661z"/>
			<path opacity="0.8" d="M658.381,136.662c3.299,2.728,4.948,7.25,4.948,13.568v33.931h-13.497v-30.648
				c0-2.65-0.354-4.684-1.056-6.103c-1.286-2.588-3.733-3.883-7.343-3.883c-4.436,0-7.479,1.896-9.131,5.687
				c-0.856,2.004-1.285,4.561-1.285,7.674v27.273h-13.175v-50.295h12.758v7.35c1.688-2.589,3.284-4.453,4.788-5.592
				c2.7-2.037,6.122-3.053,10.266-3.053C650.841,132.571,655.082,133.935,658.381,136.662z"/>
			<path opacity="0.8" d="M702.299,134.583c2.373,1.341,4.3,3.197,5.777,5.57v-24.038h13.36v68.046h-12.805v-6.981
				c-1.879,2.99-4.022,5.163-6.427,6.519c-2.402,1.356-5.393,2.033-8.966,2.033c-5.888,0-10.841-2.381-14.862-7.142
				c-4.022-4.761-6.033-10.871-6.033-18.328c0-8.598,1.98-15.363,5.94-20.293c3.96-4.933,9.252-7.397,15.88-7.397
				C697.214,132.571,699.926,133.241,702.299,134.583z M705.535,170.478c1.94-2.772,2.911-6.363,2.911-10.771
				c0-6.163-1.556-10.57-4.669-13.221c-1.91-1.603-4.129-2.406-6.654-2.406c-3.854,0-6.682,1.458-8.484,4.37
				c-1.804,2.913-2.703,6.526-2.703,10.84c0,4.654,0.915,8.377,2.749,11.165c1.835,2.787,4.616,4.182,8.345,4.182
				S703.594,173.251,705.535,170.478z"/>
			<path opacity="0.8" d="M760.949,163.427c0.379,5.934,2.319,10.65,5.822,14.154c3.503,3.502,8.282,5.254,14.344,5.254
				c5.3,0,9.717-1.325,13.254-3.976c4.038-2.902,6.059-6.879,6.059-11.929c0-5.238-2.116-9.184-6.344-11.834
				c-2.082-1.389-6.627-3.03-13.633-4.923c-0.064-0.062-0.474-0.189-1.23-0.38c-7.826-2.207-12.781-4.261-14.863-6.153
				c-3.219-2.901-4.829-6.658-4.829-11.267c0-5.807,2.021-10.254,6.06-13.349c3.723-2.966,8.52-4.448,14.39-4.448
				c6.376,0,11.486,1.736,15.337,5.207c3.978,3.471,6.122,8.394,6.439,14.769h-3.031c-0.127-5.491-1.987-9.783-5.585-12.876
				c-3.472-2.967-7.922-4.45-13.349-4.45c-5.051,0-9.121,1.264-12.212,3.788c-3.347,2.651-5.019,6.437-5.019,11.359
				c0,3.535,1.388,6.598,4.165,9.185c2.084,1.893,6.562,3.724,13.443,5.491c0.127,0.063,0.299,0.111,0.521,0.14
				c0.221,0.034,0.489,0.113,0.805,0.237c7.258,1.958,12.244,3.788,14.959,5.491c4.796,3.095,7.195,7.48,7.195,13.16
				c0,6.313-2.242,11.236-6.722,14.768c-4.104,3.159-9.405,4.735-15.905,4.735c-6.88,0-12.341-1.988-16.378-5.966
				c-4.104-3.849-6.376-9.245-6.816-16.188H760.949z"/>
			<path opacity="0.8" d="M816.047,116.092h3.125v68.069h-3.125V116.092z"/>
			<path opacity="0.8" d="M828.258,181.035l43.739-62.01h-40.048v-2.934h43.456v3.218l-43.738,62.012h44.874v2.84h-48.283V181.035z"
				/>
			<path opacity="0.8" d="M885.251,116.092h41.562v3.028H888.47v28.118h30.39v2.936h-30.39v30.957h39.289v3.03h-42.508V116.092z"/>
			<path opacity="0.8" d="M938.549,163.427c0.38,5.934,2.321,10.65,5.823,14.154c3.502,3.502,8.283,5.254,14.343,5.254
				c5.302,0,9.719-1.325,13.254-3.976c4.038-2.902,6.06-6.879,6.06-11.929c0-5.238-2.116-9.184-6.344-11.834
				c-2.083-1.389-6.627-3.03-13.633-4.923c-0.063-0.062-0.474-0.189-1.23-0.38c-7.826-2.207-12.781-4.261-14.864-6.153
				c-3.219-2.901-4.828-6.658-4.828-11.267c0-5.807,2.02-10.254,6.059-13.349c3.724-2.966,8.521-4.448,14.391-4.448
				c6.375,0,11.486,1.736,15.337,5.207c3.977,3.471,6.122,8.394,6.438,14.769h-3.03c-0.127-5.491-1.987-9.783-5.585-12.876
				c-3.473-2.967-7.923-4.45-13.349-4.45c-5.052,0-9.12,1.264-12.212,3.788c-3.348,2.651-5.019,6.437-5.019,11.359
				c0,3.535,1.387,6.598,4.165,9.185c2.083,1.893,6.563,3.724,13.443,5.491c0.126,0.063,0.299,0.111,0.52,0.14
				c0.223,0.034,0.489,0.113,0.806,0.237c7.258,1.958,12.245,3.788,14.959,5.491c4.796,3.095,7.195,7.48,7.195,13.16
				c0,6.313-2.242,11.236-6.722,14.768c-4.104,3.159-9.405,4.735-15.905,4.735c-6.88,0-12.341-1.988-16.378-5.966
				c-4.104-3.849-6.376-9.245-6.815-16.188H938.549z"/>
			<path opacity="0.8" d="M993.502,174.083h9.662v10.078h-9.662V174.083z"/>
		</g>
	</g>
</g>
</svg>
